<svg width="405" height="406" viewBox="0 0 405 406" fill="none" xmlns="http://www.w3.org/2000/svg">
<path d="M205.312 97L335.216 172V322L205.312 397L75.4087 322V172L205.312 97Z" fill="#9EB25D"/>
<path d="M204.812 154L286.652 201.25V295.75L204.812 343L122.973 295.75V201.25L204.812 154Z" fill="#8D9F53"/>
<g clip-path="url(#clip0_480_43)">
<path d="M229.216 311.848L282.676 86.8024L121.293 94.3577L180.051 324.69L229.216 311.848Z" fill="url(#paint0_linear_480_43)"/>
<path d="M175.122 368.797C175.119 367.841 175.881 367.025 176.881 366.985L179.498 366.961L179.499 366.962C180.353 366.957 181.06 367.615 181.092 368.518L181.158 376.31C181.158 377.175 180.485 377.897 179.575 377.932L176.953 377.954C175.985 377.962 175.19 377.167 175.209 376.237L175.21 376.212L175.21 376.188L175.122 368.797Z" fill="#F9B233" stroke="black" stroke-width="3"/>
<path d="M180.273 361.82C180.27 360.863 181.032 360.048 182.031 360.007L184.649 359.984L184.65 359.984C185.508 359.98 186.217 360.642 186.244 361.55L186.434 383.209C186.434 384.074 185.759 384.796 184.849 384.83L182.261 384.853C181.388 384.831 180.617 384.154 180.499 383.244L180.484 383.059L180.273 361.82Z" fill="#F7EE7F" stroke="black" stroke-width="3"/>
<path d="M174.576 296.481L202.692 295.948L231.536 295.414L230.324 308.412L230.324 308.413C229.323 319.28 226.792 329.921 222.855 340.1L221.672 343.108L221.67 343.114L220.999 344.844L220.437 344.878L220.458 346.31L220.545 352.027L220.865 386.054L219.735 386.623L219.734 386.623L215.361 388.811L215.328 388.827L215.297 388.844C214.641 389.213 214.284 389.422 214.071 389.555C213.961 389.625 213.871 389.686 213.789 389.748C213.757 389.772 213.695 389.822 213.668 389.844C213.696 389.822 213.647 389.879 211.818 390.872L211.795 390.885L211.774 390.897L205.54 394.56L200.973 391.863C197.437 389.631 197.708 389.976 193.882 387.823L189.919 385.272L189.912 385.268L189.024 384.703L189.002 384.689L188.981 384.677L184.386 381.965L184.329 358.697L184.33 358.686L184.27 352.633L184.211 346.58L184.209 346.349L184.137 346.13L183.407 343.891L183.404 343.883L181.78 338.998L181.777 338.989C178.859 330.382 176.932 321.438 176.057 312.384L176.059 312.384L174.576 296.481Z" fill="#5B6057" stroke="black" stroke-width="3"/>
<path d="M220.454 345.177L220.463 346.239L220.494 350.524L184.259 351.066L184.211 346.426L184.208 346.195L184.137 345.976L184.038 345.675L220.454 345.177Z" fill="#F7EE7F" stroke="black" stroke-width="3"/>
<path opacity="0.2" d="M233.189 293.884L231.82 308.55C230.806 319.561 228.241 330.341 224.253 340.649L223.071 343.657L222.053 346.281L221.96 346.287L222.048 352.012L221.956 387.734L217.779 388.996C216.909 389.863 218.489 390.602 213.837 390.701L203.869 394.961L202.53 294.504L233.189 293.884Z" fill="#060707"/>
<path d="M170.446 293.49C170.43 292.083 171.572 290.953 172.907 290.957L172.919 290.956L172.932 290.956L232.409 290.108L232.676 290.117C233.954 290.223 234.938 291.293 234.928 292.543L234.927 292.591L234.929 292.638C235.015 294.172 233.783 295.453 232.245 295.457L232.237 295.457L232.228 295.457L173.325 296.27C171.783 296.274 170.516 295.057 170.446 293.49Z" fill="#F7EE7F" stroke="black" stroke-width="3"/>
</g>
<path d="M332.717 173.443V320.556L205.312 394.112L77.9092 320.557V173.442L205.312 99.8867L332.717 173.443Z" stroke="black" stroke-width="5"/>
<defs>
<linearGradient id="paint0_linear_480_43" x1="206.143" y1="300.831" x2="199.791" y2="102.658" gradientUnits="userSpaceOnUse">
<stop stop-color="#F9B233"/>
<stop offset="0.151567" stop-color="#F9B233" stop-opacity="0.8731"/>
<stop offset="1" stop-color="#F9B233" stop-opacity="0"/>
</linearGradient>
<clipPath id="clip0_480_43">
<rect width="295.41" height="278.77" fill="white" transform="translate(0 220.746) rotate(-48.3529)"/>
</clipPath>
</defs>
</svg>
