<svg width="74" height="67" viewBox="0 0 74 67" fill="none" xmlns="http://www.w3.org/2000/svg">
<path d="M69.1152 15.286L58.5165 25.0286L32.0197 26.6523L15.3063 43.2959L5.11523 40.0484L12.8605 31.5236L10.4146 19.3454L23.4592 22.5929L27.128 10.8207L38.542 16.9098L48.7331 2.2959L53.6248 19.3454L69.1152 15.286Z" fill="#D1C85D" stroke="black" stroke-width="2"/>
<path d="M42.6953 18.7178C57.8814 18.7179 70.1922 29.1442 70.1924 42.0059C70.1924 54.8677 57.8815 65.2947 42.6953 65.2949C27.5089 65.2949 15.1973 54.8678 15.1973 42.0059C15.1975 29.1441 27.5091 18.7178 42.6953 18.7178Z" fill="#6FABFF"/>
<path d="M15.2917 43.1052C14.3622 34.7644 20.5202 29.1099 23.7154 27.3253C26.0394 22.5913 34.7532 20.8443 38.8196 20.5625H41.7244L45.5005 23.9439L39.4006 24.5075L41.7244 27.3253L37.0768 28.1707L25.7484 32.3974L22.8437 38.5966L23.7154 48.7409L29.5246 58.6033L38.8196 63.6754C33.8816 64.239 31.5579 62.2665 25.7484 60.0122C19.939 57.7579 16.2257 46.4866 15.2917 43.1052Z" fill="#6497DD"/>
<rect x="26.9824" y="35.4072" width="17.3963" height="13.7297" rx="6.86487" transform="rotate(-6.93119 26.9824 35.4072)" fill="#EEFCCE"/>
<rect x="32.0352" y="37.915" width="10.283" height="8.11569" rx="4.05785" transform="rotate(-6.93119 32.0352 37.915)" fill="#121212"/>
<rect x="51.4258" y="30.5381" width="14.2537" height="13.7297" rx="6.86487" transform="rotate(-6.93119 51.4258 30.5381)" fill="#EEFCCE"/>
<rect x="52.7969" y="33.4258" width="10.283" height="8.11569" rx="4.05785" transform="rotate(-6.93119 52.7969 33.4258)" fill="#121212"/>
<path d="M53.6378 43.4088L51.9543 46.2147L50.5514 45.3729L49.1484 44.2506L50.2708 43.4088L52.796 42.8477L53.6378 43.4088Z" fill="black"/>
<path d="M48.5859 52.3878L52.2335 47.8984L55.8812 50.9849" stroke="black" stroke-width="2"/>
<path d="M45.501 50.0245L41.8534 52.5497L38.4863 53.9527L43.8175 52.5497L47.1845 51.1468L48.3068 48.341L49.1486 43.571L51.1127 41.0457V37.6787H49.1486L48.3068 39.6428L47.1845 46.6574L45.501 50.0245Z" fill="#6497DD"/>
<path d="M42.6953 18.7178L42.6953 17.7178H42.6953V18.7178ZM70.1924 42.0059L71.1924 42.0059L71.1924 42.0058L70.1924 42.0059ZM42.6953 65.2949L42.6953 66.2949L42.6953 66.2949L42.6953 65.2949ZM15.1973 42.0059L14.1973 42.0058V42.0059H15.1973ZM42.6953 18.7178L42.6953 19.7178C57.4913 19.7179 69.1922 29.8458 69.1924 42.0059L70.1924 42.0059L71.1924 42.0058C71.1922 28.4426 58.2715 17.718 42.6953 17.7178L42.6953 18.7178ZM70.1924 42.0059H69.1924C69.1924 54.1661 57.4914 64.2948 42.6953 64.2949L42.6953 65.2949L42.6953 66.2949C58.2717 66.2947 71.1924 55.5692 71.1924 42.0059H70.1924ZM42.6953 65.2949V64.2949C27.899 64.2949 16.1973 54.1662 16.1973 42.0059H15.1973H14.1973C14.1973 55.5694 27.1188 66.2949 42.6953 66.2949V65.2949ZM15.1973 42.0059L16.1973 42.0059C16.1975 29.8457 27.8991 19.7178 42.6953 19.7178V18.7178V17.7178C27.119 17.7178 14.1975 28.4425 14.1973 42.0058L15.1973 42.0059Z" fill="#121212"/>
<path d="M71.3154 29.0996L72.4375 32.4658L70.7549 33.8691V43.4092L67.3877 48.1787L61.2148 49.8623L56.7256 47.3369L53.3584 40.8838L51.1133 36.6748H48.8691L47.7461 39.4805L46.9043 45.373L43.8184 50.7041L38.4873 53.2295L32.0332 52.668L26.4219 48.1787L23.0547 41.7256H21.6523L20.5293 37.7979L26.4219 34.4307L32.0332 33.0273H48.3076L51.9551 32.4658L58.4082 29.0996L64.8623 28.5381L71.3154 29.0996ZM32.3135 37.2363L26.4209 39.7617V41.1641L28.3857 45.0928L32.3135 48.7402L37.083 49.582L42.1338 47.6182L44.0977 41.1641L43.2568 37.2363L39.8896 36.1133L32.3135 37.2363ZM58.127 33.3076L55.3213 34.9912V37.7969L57.2852 40.6035L59.25 44.5312L61.4941 45.6533H64.5811L67.3867 42.5674V33.3076L63.7393 32.4658L58.127 33.3076Z" fill="#8D9F53"/>
<path d="M71.3154 29.0996L72.2641 28.7834L72.0564 28.1603L71.4021 28.1034L71.3154 29.0996ZM72.4375 32.4658L73.078 33.2338L73.6019 32.7968L73.3862 32.1496L72.4375 32.4658ZM70.7549 33.8691L70.1144 33.1012L69.7549 33.401V33.8691H70.7549ZM70.7549 43.4092L71.5718 43.9859L71.7549 43.7266V43.4092H70.7549ZM67.3877 48.1787L67.6508 49.1435L67.9974 49.0489L68.2046 48.7554L67.3877 48.1787ZM61.2148 49.8623L60.7246 50.7339L61.0821 50.935L61.478 50.8271L61.2148 49.8623ZM56.7256 47.3369L55.839 47.7995L55.9764 48.0628L56.2353 48.2085L56.7256 47.3369ZM53.3584 40.8838L54.245 40.4212L54.2407 40.4131L53.3584 40.8838ZM51.1133 36.6748L51.9956 36.2042L51.7132 35.6748H51.1133V36.6748ZM48.8691 36.6748V35.6748H48.1923L47.9408 36.3032L48.8691 36.6748ZM47.7461 39.4805L46.8177 39.1089L46.7731 39.2203L46.7561 39.339L47.7461 39.4805ZM46.9043 45.373L47.7698 45.874L47.8668 45.7063L47.8942 45.5145L46.9043 45.373ZM43.8184 50.7041L44.2465 51.6078L44.5278 51.4745L44.6838 51.2051L43.8184 50.7041ZM38.4873 53.2295L38.4006 54.2257L38.6706 54.2492L38.9154 54.1332L38.4873 53.2295ZM32.0332 52.668L31.4085 53.4488L31.6449 53.638L31.9465 53.6642L32.0332 52.668ZM26.4219 48.1787L25.5353 48.6413L25.6327 48.828L25.7972 48.9596L26.4219 48.1787ZM23.0547 41.7256L23.9413 41.263L23.6608 40.7256H23.0547V41.7256ZM21.6523 41.7256L20.6909 42.0005L20.8982 42.7256H21.6523V41.7256ZM20.5293 37.7979L20.0332 36.9296L19.3522 37.3187L19.5678 38.0728L20.5293 37.7979ZM26.4219 34.4307L26.1793 33.4605L26.0455 33.494L25.9257 33.5624L26.4219 34.4307ZM32.0332 33.0273V32.0273H31.9101L31.7906 32.0572L32.0332 33.0273ZM48.3076 33.0273V34.0273H48.3841L48.4598 34.0157L48.3076 33.0273ZM51.9551 32.4658L52.1072 33.4542L52.2708 33.429L52.4176 33.3524L51.9551 32.4658ZM58.4082 29.0996L58.3215 28.1034L58.1227 28.1207L57.9457 28.213L58.4082 29.0996ZM64.8623 28.5381L64.949 27.5419L64.8623 27.5343L64.7756 27.5418L64.8623 28.5381ZM32.3135 37.2363L32.1668 36.2471L32.0387 36.2661L31.9196 36.3172L32.3135 37.2363ZM26.4209 39.7617L26.027 38.8426L25.4209 39.1023V39.7617H26.4209ZM26.4209 41.1641H25.4209V41.4002L25.5265 41.6114L26.4209 41.1641ZM28.3857 45.0928L27.4914 45.5401L27.5724 45.7022L27.7053 45.8255L28.3857 45.0928ZM32.3135 48.7402L31.633 49.473L31.8492 49.6737L32.1397 49.725L32.3135 48.7402ZM37.083 49.582L36.9092 50.5668L37.1847 50.6154L37.4454 50.5141L37.083 49.582ZM42.1338 47.6182L42.4962 48.5502L42.949 48.3741L43.0905 47.9093L42.1338 47.6182ZM44.0977 41.1641L45.0543 41.4552L45.1297 41.2077L45.0755 40.9547L44.0977 41.1641ZM43.2568 37.2363L44.2347 37.027L44.1151 36.4684L43.5732 36.2877L43.2568 37.2363ZM39.8896 36.1133L40.206 35.1647L39.9794 35.0891L39.743 35.1241L39.8896 36.1133ZM58.127 33.3076L57.9786 32.3187L57.7825 32.3481L57.6124 32.4502L58.127 33.3076ZM55.3213 34.9912L54.8067 34.1337L54.3213 34.4251V34.9912H55.3213ZM55.3213 37.7969H54.3213V38.112L54.502 38.3702L55.3213 37.7969ZM57.2852 40.6035L58.1795 40.1561L58.1466 40.0904L58.1045 40.0302L57.2852 40.6035ZM59.25 44.5312L58.3557 44.9786L58.5047 45.2767L58.8028 45.4257L59.25 44.5312ZM61.4941 45.6533L61.0469 46.5477L61.2581 46.6533H61.4941V45.6533ZM64.5811 45.6533V46.6533H65.0234L65.321 46.326L64.5811 45.6533ZM67.3867 42.5674L68.1266 43.2401L68.3867 42.954V42.5674H67.3867ZM67.3867 33.3076H68.3867V32.5121L67.6116 32.3332L67.3867 33.3076ZM63.7393 32.4658L63.9641 31.4914L63.7789 31.4487L63.5909 31.4769L63.7393 32.4658ZM71.3154 29.0996L70.3667 29.4158L71.4888 32.782L72.4375 32.4658L73.3862 32.1496L72.2641 28.7834L71.3154 29.0996ZM72.4375 32.4658L71.797 31.6979L70.1144 33.1012L70.7549 33.8691L71.3954 34.6371L73.078 33.2338L72.4375 32.4658ZM70.7549 33.8691H69.7549V43.4092H70.7549H71.7549V33.8691H70.7549ZM70.7549 43.4092L69.938 42.8324L66.5708 47.602L67.3877 48.1787L68.2046 48.7554L71.5718 43.9859L70.7549 43.4092ZM67.3877 48.1787L67.1246 47.214L60.9517 48.8975L61.2148 49.8623L61.478 50.8271L67.6508 49.1435L67.3877 48.1787ZM61.2148 49.8623L61.7051 48.9907L57.2159 46.4654L56.7256 47.3369L56.2353 48.2085L60.7246 50.7339L61.2148 49.8623ZM56.7256 47.3369L57.6122 46.8743L54.245 40.4212L53.3584 40.8838L52.4718 41.3464L55.839 47.7995L56.7256 47.3369ZM53.3584 40.8838L54.2407 40.4131L51.9956 36.2042L51.1133 36.6748L50.231 37.1454L52.4761 41.3544L53.3584 40.8838ZM51.1133 36.6748V35.6748H48.8691V36.6748V37.6748H51.1133V36.6748ZM48.8691 36.6748L47.9408 36.3032L46.8177 39.1089L47.7461 39.4805L48.6745 39.8521L49.7975 37.0464L48.8691 36.6748ZM47.7461 39.4805L46.7561 39.339L45.9143 45.2316L46.9043 45.373L47.8942 45.5145L48.736 39.6219L47.7461 39.4805ZM46.9043 45.373L46.0388 44.8721L42.9529 50.2031L43.8184 50.7041L44.6838 51.2051L47.7698 45.874L46.9043 45.373ZM43.8184 50.7041L43.3903 49.8004L38.0592 52.3258L38.4873 53.2295L38.9154 54.1332L44.2465 51.6078L43.8184 50.7041ZM38.4873 53.2295L38.574 52.2333L32.1199 51.6717L32.0332 52.668L31.9465 53.6642L38.4006 54.2257L38.4873 53.2295ZM32.0332 52.668L32.6579 51.8871L27.0466 47.3979L26.4219 48.1787L25.7972 48.9596L31.4085 53.4488L32.0332 52.668ZM26.4219 48.1787L27.3084 47.7161L23.9413 41.263L23.0547 41.7256L22.1681 42.1882L25.5353 48.6413L26.4219 48.1787ZM23.0547 41.7256V40.7256H21.6523V41.7256V42.7256H23.0547V41.7256ZM21.6523 41.7256L22.6138 41.4507L21.4908 37.5229L20.5293 37.7979L19.5678 38.0728L20.6909 42.0005L21.6523 41.7256ZM20.5293 37.7979L21.0254 38.6661L26.918 35.2989L26.4219 34.4307L25.9257 33.5624L20.0332 36.9296L20.5293 37.7979ZM26.4219 34.4307L26.6645 35.4008L32.2758 33.9975L32.0332 33.0273L31.7906 32.0572L26.1793 33.4605L26.4219 34.4307ZM32.0332 33.0273V34.0273H48.3076V33.0273V32.0273H32.0332V33.0273ZM48.3076 33.0273L48.4598 34.0157L52.1072 33.4542L51.9551 32.4658L51.8029 31.4775L48.1555 32.039L48.3076 33.0273ZM51.9551 32.4658L52.4176 33.3524L58.8707 29.9862L58.4082 29.0996L57.9457 28.213L51.4926 31.5792L51.9551 32.4658ZM58.4082 29.0996L58.4949 30.0958L64.949 29.5343L64.8623 28.5381L64.7756 27.5418L58.3215 28.1034L58.4082 29.0996ZM64.8623 28.5381L64.7756 29.5343L71.2287 30.0958L71.3154 29.0996L71.4021 28.1034L64.949 27.5419L64.8623 28.5381ZM32.3135 37.2363L31.9196 36.3172L26.027 38.8426L26.4209 39.7617L26.8148 40.6809L32.7074 38.1555L32.3135 37.2363ZM26.4209 39.7617H25.4209V41.1641H26.4209H27.4209V39.7617H26.4209ZM26.4209 41.1641L25.5265 41.6114L27.4914 45.5401L28.3857 45.0928L29.2801 44.6455L27.3153 40.7168L26.4209 41.1641ZM28.3857 45.0928L27.7053 45.8255L31.633 49.473L32.3135 48.7402L32.994 48.0075L29.0662 44.36L28.3857 45.0928ZM32.3135 48.7402L32.1397 49.725L36.9092 50.5668L37.083 49.582L37.2568 48.5973L32.4873 47.7555L32.3135 48.7402ZM37.083 49.582L37.4454 50.5141L42.4962 48.5502L42.1338 47.6182L41.7714 46.6861L36.7206 48.65L37.083 49.582ZM42.1338 47.6182L43.0905 47.9093L45.0543 41.4552L44.0977 41.1641L43.141 40.873L41.1771 47.3271L42.1338 47.6182ZM44.0977 41.1641L45.0755 40.9547L44.2347 37.027L43.2568 37.2363L42.279 37.4457L43.1198 41.3734L44.0977 41.1641ZM43.2568 37.2363L43.5732 36.2877L40.206 35.1647L39.8896 36.1133L39.5733 37.0619L42.9404 38.185L43.2568 37.2363ZM39.8896 36.1133L39.743 35.1241L32.1668 36.2471L32.3135 37.2363L32.4601 38.2255L40.0363 37.1025L39.8896 36.1133ZM58.127 33.3076L57.6124 32.4502L54.8067 34.1337L55.3213 34.9912L55.8358 35.8487L58.6415 34.1651L58.127 33.3076ZM55.3213 34.9912H54.3213V37.7969H55.3213H56.3213V34.9912H55.3213ZM55.3213 37.7969L54.502 38.3702L56.4658 41.1768L57.2852 40.6035L58.1045 40.0302L56.1406 37.2236L55.3213 37.7969ZM57.2852 40.6035L56.3908 41.0509L58.3557 44.9786L59.25 44.5312L60.1443 44.0839L58.1795 40.1561L57.2852 40.6035ZM59.25 44.5312L58.8028 45.4257L61.0469 46.5477L61.4941 45.6533L61.9414 44.7589L59.6972 43.6368L59.25 44.5312ZM61.4941 45.6533V46.6533H64.5811V45.6533V44.6533H61.4941V45.6533ZM64.5811 45.6533L65.321 46.326L68.1266 43.2401L67.3867 42.5674L66.6468 41.8947L63.8411 44.9806L64.5811 45.6533ZM67.3867 42.5674H68.3867V33.3076H67.3867H66.3867V42.5674H67.3867ZM67.3867 33.3076L67.6116 32.3332L63.9641 31.4914L63.7393 32.4658L63.5144 33.4402L67.1618 34.282L67.3867 33.3076ZM63.7393 32.4658L63.5909 31.4769L57.9786 32.3187L58.127 33.3076L58.2753 34.2966L63.8876 33.4548L63.7393 32.4658Z" fill="black"/>
<path d="M62.1152 6.78757L57.1837 23.5292L50.6084 21.8959H44.033H34.17L22.6632 28.4292L18.1426 37.8209L20.1974 46.3959L4.58099 51.2959L12.8002 37.8209L2.11523 30.0626L20.1974 23.5292L16.0878 10.4626L31.7043 17.4042L36.6358 2.2959L48.5536 17.4042L62.1152 6.78757Z" fill="#F7EE7F" stroke="black" stroke-width="2"/>
</svg>
