<svg width="73" height="85" viewBox="0 0 73 85" fill="none" xmlns="http://www.w3.org/2000/svg">
<path d="M36.3428 3.54785C42.4965 -7.4217 54.1474 19.6165 59.6055 35.6084C64.9814 40.6567 68.2549 47.3423 68.2549 54.6758C68.2547 70.4048 53.1995 83.156 34.6279 83.1562C16.0561 83.1562 1.00021 70.4049 1 54.6758C1 51.2883 1.69916 48.039 2.98047 45.0254L4.08789 36.832C5.11732 29.2829 7.58832 12.5385 9.23535 5.9502C13.5413 -3.92806 23.4349 14.0638 28.8926 26.6084C30.6038 26.3594 32.3592 26.2204 34.1484 26.1992C34.5149 18.4392 35.2461 7.71505 36.3428 3.54785Z" fill="#F7EE7F"/>
<path d="M1.11554 56.0203C-0.021186 45.8201 7.50964 38.9051 11.4171 36.7226C14.2593 30.9333 24.9157 28.7968 29.8886 28.4521H33.4409L38.0588 32.5874L30.599 33.2766L33.4409 36.7226L27.7572 37.7564L13.9034 42.9255L10.3511 50.5067L11.4171 62.9124L18.5213 74.9735L29.8886 81.1763C23.8497 81.8655 21.0079 79.4533 13.9034 76.6965C6.79881 73.9397 2.25774 60.1556 1.11554 56.0203Z" fill="#EEE46E"/>
<path d="M58.6471 34.6284C52.1275 29.4814 43.5489 27.624 36.3435 27.2971C35.6564 23.3738 36.0004 12.7237 37.3729 6.51191C41.4905 -5.91171 55.902 27.1089 58.6471 34.6284Z" fill="#A54657"/>
<path d="M28.1086 28.4513C18.5008 29.4583 9.36351 37.0257 5.80469 41.4906C6.55959 34.7933 8.41253 21.7711 10.3537 9.38073C12.2949 -3.01001 24.8733 19.4098 28.1086 28.4513Z" fill="#A54657"/>
<rect x="15.4121" y="46.6064" width="21.2745" height="16.7906" rx="8.39528" transform="rotate(-6.93119 15.4121 46.6064)" fill="#EEFCCE"/>
<rect x="21.5879" y="49.6738" width="12.5754" height="9.92495" rx="4.96247" transform="rotate(-6.93119 21.5879 49.6738)" fill="#121212"/>
<rect x="45.3047" y="40.6523" width="17.4313" height="16.7906" rx="8.39528" transform="rotate(-6.93119 45.3047 40.6523)" fill="#EEFCCE"/>
<rect x="46.9805" y="44.1836" width="12.5754" height="9.92495" rx="4.96247" transform="rotate(-6.93119 46.9805 44.1836)" fill="#121212"/>
<path d="M17.1267 13.8425L25.7051 28.7953C19.5286 30.511 16.2117 33.0272 13.6953 34.9718C13.6953 30.5109 14.3816 20.019 14.3816 14.5288C14.3816 9.03862 16.2117 11.7837 17.1267 13.8425Z" fill="black"/>
<path d="M42.1762 10.0674C44.0978 9.79289 50.7544 23.9907 53.8426 31.1966C52.4701 29.824 45.722 28.1393 42.1762 27.5675C41.9474 22.5348 41.6272 11.989 42.1762 10.0674Z" fill="black"/>
<path d="M48.0097 56.3914L45.9509 59.8227L44.2352 58.7933L42.5195 57.4208L43.8921 56.3914L46.9803 55.7051L48.0097 56.3914Z" fill="black"/>
<path d="M41.834 67.372L46.2948 61.8818L50.7556 65.6563" stroke="black" stroke-width="2"/>
<path d="M38.0589 64.4818L33.5981 67.5701L29.4805 69.2857L36.0001 67.5701L40.1177 65.8544L41.4903 62.423L42.5197 56.5897L44.9216 53.5014V49.3838H42.5197L41.4903 51.7857L40.1177 60.3642L38.0589 64.4818Z" fill="#EEE46E"/>
<path d="M36.3428 3.54785L35.4706 3.0586L35.4382 3.11634L35.4137 3.17784L36.3428 3.54785ZM59.6055 35.6084L58.6591 35.9314L58.7395 36.167L58.9209 36.3374L59.6055 35.6084ZM68.2549 54.6758L69.2549 54.6758V54.6758H68.2549ZM34.6279 83.1562L34.6279 84.1563L34.6279 84.1562L34.6279 83.1562ZM1 54.6758L0 54.6758L0 54.6758L1 54.6758ZM2.98047 45.0254L3.90074 45.4167L3.95342 45.2928L3.97146 45.1593L2.98047 45.0254ZM4.08789 36.832L3.09706 36.6969L3.0969 36.6981L4.08789 36.832ZM9.23535 5.9502L8.31866 5.55061L8.2854 5.62691L8.26521 5.70766L9.23535 5.9502ZM28.8926 26.6084L27.9756 27.0073L28.2804 27.708L29.0366 27.598L28.8926 26.6084ZM34.0508 26.2002L34.065 27.2001L35.0333 27.1863L35.0506 26.2181L34.0508 26.2002ZM36.3428 3.54785L37.2149 4.03711C37.9187 2.78245 38.6025 2.25131 39.1762 2.0768C39.73 1.90838 40.4119 2.00333 41.2866 2.53513C43.097 3.63589 45.1944 6.28676 47.374 9.97622C51.6859 17.2751 55.9371 27.9562 58.6591 35.9314L59.6055 35.6084L60.5519 35.2854C57.8157 27.2687 53.5124 16.4348 49.0959 8.95894C46.9114 5.26106 44.601 2.20967 42.3256 0.826211C41.1574 0.115895 39.8769 -0.226752 38.5943 0.163347C37.3317 0.547359 36.3052 1.57086 35.4706 3.0586L36.3428 3.54785ZM59.6055 35.6084L58.9209 36.3374C64.123 41.2224 67.2549 47.6539 67.2549 54.6758H68.2549H69.2549C69.2549 47.0306 65.8398 40.091 60.29 34.8794L59.6055 35.6084ZM68.2549 54.6758L67.2549 54.6758C67.2547 69.7032 52.8094 82.156 34.6279 82.1563L34.6279 83.1562L34.6279 84.1562C53.5896 84.156 69.2547 71.1063 69.2549 54.6758L68.2549 54.6758ZM34.6279 83.1562V82.1562C16.4462 82.1562 2.0002 69.7033 2 54.6758L1 54.6758L0 54.6758C0.000218691 71.1065 15.666 84.1562 34.6279 84.1562V83.1562ZM1 54.6758H2C2 51.4279 2.67 48.3113 3.90074 45.4167L2.98047 45.0254L2.0602 44.6341C0.728324 47.7666 0 51.1487 0 54.6758H1ZM2.98047 45.0254L3.97146 45.1593L5.07888 36.966L4.08789 36.832L3.0969 36.6981L1.98948 44.8914L2.98047 45.0254ZM4.08789 36.832L5.07872 36.9671C6.11057 29.4002 8.57459 12.7165 10.2055 6.19273L9.23535 5.9502L8.26521 5.70766C6.60204 12.3605 4.12406 29.1656 3.09706 36.6969L4.08789 36.832ZM9.23535 5.9502L10.152 6.34978C10.6479 5.21212 11.1659 4.61762 11.6185 4.3376C12.0306 4.08268 12.4862 4.02678 13.0641 4.20307C13.6783 4.39041 14.4093 4.83884 15.2416 5.58325C16.0653 6.32002 16.9374 7.30061 17.8377 8.47813C21.4548 13.209 25.2537 20.7509 27.9756 27.0073L28.8926 26.6084L29.8096 26.2095C27.0739 19.9214 23.1971 12.195 19.4265 7.26336C18.4798 6.02524 17.523 4.94056 16.5749 4.09256C15.6354 3.2522 14.6517 2.59636 13.6476 2.29008C12.6073 1.97275 11.5408 2.03388 10.5663 2.63678C9.63236 3.21458 8.89923 4.2187 8.31866 5.55061L9.23535 5.9502ZM28.8926 26.6084L29.0366 27.598C30.6736 27.3597 32.3529 27.2245 34.065 27.2001L34.0508 26.2002L34.0365 25.2003C32.2377 25.2259 30.4717 25.3681 28.7486 25.6188L28.8926 26.6084ZM34.0508 26.2002L35.0506 26.2181C35.1185 22.4312 35.2131 17.9962 35.5275 13.9129C35.8445 9.79618 36.3776 6.16315 37.2718 3.91786L36.3428 3.54785L35.4137 3.17784C34.3955 5.73461 33.8504 9.6428 33.5335 13.7593C33.2139 17.9091 33.1188 22.3993 33.0509 26.1823L34.0508 26.2002Z" fill="#121212"/>
<path d="M3.05859 44.9221C9.5782 32.9123 37.0292 16.4416 60.7057 36.687" stroke="black" stroke-width="2"/>
<path d="M69.6279 38.8916L71 43.0088L68.9414 44.7246V56.3916L64.8232 62.2246L57.2744 64.2832L51.7842 61.1953L47.667 53.3037L44.9219 48.1562H42.1768L40.8037 51.5879L39.7744 58.7939L36 65.3135L29.4805 68.4014L21.5879 67.7148L14.7256 62.2246L10.6074 54.333H8.89258L7.51953 49.5283L14.7256 45.4111L21.5879 43.6953H41.4902L45.9512 43.0088L53.8428 38.8916L61.7354 38.2051L69.6279 38.8916ZM21.9316 48.8428L14.7256 51.9307V53.6465L17.1279 58.4502L21.9316 62.9111L27.7646 63.9404L33.9414 61.5381L36.3428 53.6465L35.3135 48.8428L31.1963 47.4697L21.9316 48.8428ZM53.5 44.0381L50.0684 46.0977V49.5283L52.4707 52.96L54.8721 57.7637L57.6172 59.1367H61.3926L64.8232 55.3623V44.0381L60.3623 43.0088L53.5 44.0381Z" fill="#8D9F53"/>
<path d="M69.6279 38.8916L70.5766 38.5754L70.369 37.9523L69.7146 37.8954L69.6279 38.8916ZM71 43.0088L71.6403 43.777L72.1645 43.34L71.9487 42.6926L71 43.0088ZM68.9414 44.7246L68.3012 43.9564L67.9414 44.2563V44.7246H68.9414ZM68.9414 56.3916L69.7583 56.9684L69.9414 56.709V56.3916H68.9414ZM64.8232 62.2246L65.0863 63.1894L65.433 63.0949L65.6402 62.8014L64.8232 62.2246ZM57.2744 64.2832L56.7842 65.1548L57.1417 65.3559L57.5375 65.248L57.2744 64.2832ZM51.7842 61.1953L50.8976 61.6579L51.035 61.9213L51.294 62.0669L51.7842 61.1953ZM47.667 53.3037L48.5536 52.8411L48.5494 52.8331L47.667 53.3037ZM44.9219 48.1562L45.8042 47.6857L45.5219 47.1562H44.9219V48.1562ZM42.1768 48.1562V47.1562H41.4998L41.2483 47.7848L42.1768 48.1562ZM40.8037 51.5879L39.8753 51.2164L39.8307 51.3278L39.8138 51.4465L40.8037 51.5879ZM39.7744 58.7939L40.6398 59.295L40.737 59.1272L40.7644 58.9353L39.7744 58.7939ZM36 65.3135L36.4281 66.2172L36.7094 66.084L36.8654 65.8145L36 65.3135ZM29.4805 68.4014L29.3938 69.3976L29.6637 69.4211L29.9085 69.3051L29.4805 68.4014ZM21.5879 67.7148L20.9632 68.4957L21.1996 68.6848L21.5012 68.7111L21.5879 67.7148ZM14.7256 62.2246L13.839 62.6872L13.9365 62.8739L14.1009 63.0055L14.7256 62.2246ZM10.6074 54.333L11.494 53.8704L11.2136 53.333H10.6074V54.333ZM8.89258 54.333L7.93107 54.6078L8.13832 55.333H8.89258V54.333ZM7.51953 49.5283L7.02344 48.66L6.34255 49.0491L6.55802 49.8031L7.51953 49.5283ZM14.7256 45.4111L14.483 44.441L14.3492 44.4744L14.2295 44.5429L14.7256 45.4111ZM21.5879 43.6953V42.6953H21.4648L21.3453 42.7252L21.5879 43.6953ZM41.4902 43.6953V44.6953H41.5667L41.6423 44.6837L41.4902 43.6953ZM45.9512 43.0088L46.1033 43.9972L46.2669 43.972L46.4137 43.8954L45.9512 43.0088ZM53.8428 38.8916L53.7561 37.8954L53.5572 37.9127L53.3802 38.005L53.8428 38.8916ZM61.7354 38.2051L61.822 37.2088L61.7354 37.2013L61.6487 37.2088L61.7354 38.2051ZM21.9316 48.8428L21.785 47.8536L21.6569 47.8726L21.5378 47.9236L21.9316 48.8428ZM14.7256 51.9307L14.3317 51.0115L13.7256 51.2712V51.9307H14.7256ZM14.7256 53.6465H13.7256V53.8826L13.8312 54.0938L14.7256 53.6465ZM17.1279 58.4502L16.2335 58.8975L16.3146 59.0596L16.4475 59.183L17.1279 58.4502ZM21.9316 62.9111L21.2512 63.6439L21.4673 63.8447L21.7579 63.8959L21.9316 62.9111ZM27.7646 63.9404L27.5909 64.9252L27.8664 64.9738L28.1271 64.8724L27.7646 63.9404ZM33.9414 61.5381L34.3039 62.4701L34.7567 62.294L34.8981 61.8292L33.9414 61.5381ZM36.3428 53.6465L37.2995 53.9376L37.3748 53.69L37.3206 53.437L36.3428 53.6465ZM35.3135 48.8428L36.2913 48.6333L36.1716 48.0748L35.6298 47.8941L35.3135 48.8428ZM31.1963 47.4697L31.5127 46.5211L31.286 46.4455L31.0497 46.4805L31.1963 47.4697ZM53.5 44.0381L53.3517 43.0491L53.1555 43.0786L52.9854 43.1807L53.5 44.0381ZM50.0684 46.0977L49.5538 45.2402L49.0684 45.5315V46.0977H50.0684ZM50.0684 49.5283H49.0684V49.8436L49.2491 50.1018L50.0684 49.5283ZM52.4707 52.96L53.3652 52.5128L53.3322 52.4469L53.2899 52.3865L52.4707 52.96ZM54.8721 57.7637L53.9776 58.2108L54.1266 58.5089L54.4247 58.658L54.8721 57.7637ZM57.6172 59.1367L57.1698 60.0311L57.381 60.1367H57.6172V59.1367ZM61.3926 59.1367V60.1367H61.835L62.1326 59.8093L61.3926 59.1367ZM64.8232 55.3623L65.5632 56.0349L65.8232 55.7489V55.3623H64.8232ZM64.8232 44.0381H65.8232V43.2425L65.0481 43.0637L64.8232 44.0381ZM60.3623 43.0088L60.5871 42.0344L60.4019 41.9917L60.214 42.0199L60.3623 43.0088ZM69.6279 38.8916L68.6792 39.2078L70.0513 43.3249L71 43.0088L71.9487 42.6926L70.5766 38.5754L69.6279 38.8916ZM71 43.0088L70.3597 42.2406L68.3012 43.9564L68.9414 44.7246L69.5817 45.4928L71.6403 43.777L71 43.0088ZM68.9414 44.7246H67.9414V56.3916H68.9414H69.9414V44.7246H68.9414ZM68.9414 56.3916L68.1245 55.8148L64.0063 61.6479L64.8232 62.2246L65.6402 62.8014L69.7583 56.9684L68.9414 56.3916ZM64.8232 62.2246L64.5601 61.2598L57.0113 63.3184L57.2744 64.2832L57.5375 65.248L65.0863 63.1894L64.8232 62.2246ZM57.2744 64.2832L57.7646 63.4116L52.2744 60.3237L51.7842 61.1953L51.294 62.0669L56.7842 65.1548L57.2744 64.2832ZM51.7842 61.1953L52.6708 60.7328L48.5536 52.8412L47.667 53.3037L46.7804 53.7663L50.8976 61.6579L51.7842 61.1953ZM47.667 53.3037L48.5494 52.8331L45.8042 47.6857L44.9219 48.1562L44.0395 48.6268L46.7846 53.7743L47.667 53.3037ZM44.9219 48.1562V47.1562H42.1768V48.1562V49.1562H44.9219V48.1562ZM42.1768 48.1562L41.2483 47.7848L39.8753 51.2164L40.8037 51.5879L41.7322 51.9594L43.1052 48.5277L42.1768 48.1562ZM40.8037 51.5879L39.8138 51.4465L38.7845 58.6525L39.7744 58.7939L40.7644 58.9353L41.7937 51.7293L40.8037 51.5879ZM39.7744 58.7939L38.909 58.2929L35.1346 64.8124L36 65.3135L36.8654 65.8145L40.6398 59.295L39.7744 58.7939ZM36 65.3135L35.5719 64.4097L29.0524 67.4976L29.4805 68.4014L29.9085 69.3051L36.4281 66.2172L36 65.3135ZM29.4805 68.4014L29.5671 67.4051L21.6745 66.7186L21.5879 67.7148L21.5012 68.7111L29.3938 69.3976L29.4805 68.4014ZM21.5879 67.7148L22.2126 66.934L15.3503 61.4438L14.7256 62.2246L14.1009 63.0055L20.9632 68.4957L21.5879 67.7148ZM14.7256 62.2246L15.6121 61.762L11.494 53.8704L10.6074 54.333L9.72087 54.7956L13.839 62.6872L14.7256 62.2246ZM10.6074 54.333V53.333H8.89258V54.333V55.333H10.6074V54.333ZM8.89258 54.333L9.85409 54.0582L8.48104 49.2535L7.51953 49.5283L6.55802 49.8031L7.93107 54.6078L8.89258 54.333ZM7.51953 49.5283L8.01562 50.3966L15.2217 46.2794L14.7256 45.4111L14.2295 44.5429L7.02344 48.66L7.51953 49.5283ZM14.7256 45.4111L14.9682 46.3813L21.8305 44.6654L21.5879 43.6953L21.3453 42.7252L14.483 44.441L14.7256 45.4111ZM21.5879 43.6953V44.6953H41.4902V43.6953V42.6953H21.5879V43.6953ZM41.4902 43.6953L41.6423 44.6837L46.1033 43.9972L45.9512 43.0088L45.7991 42.0204L41.3381 42.7069L41.4902 43.6953ZM45.9512 43.0088L46.4137 43.8954L54.3053 39.7782L53.8428 38.8916L53.3802 38.005L45.4886 42.1222L45.9512 43.0088ZM53.8428 38.8916L53.9294 39.8878L61.822 39.2013L61.7354 38.2051L61.6487 37.2088L53.7561 37.8954L53.8428 38.8916ZM61.7354 38.2051L61.6487 39.2013L69.5413 39.8878L69.6279 38.8916L69.7146 37.8954L61.822 37.2088L61.7354 38.2051ZM21.9316 48.8428L21.5378 47.9236L14.3317 51.0115L14.7256 51.9307L15.1195 52.8498L22.3255 49.7619L21.9316 48.8428ZM14.7256 51.9307H13.7256V53.6465H14.7256H15.7256V51.9307H14.7256ZM14.7256 53.6465L13.8312 54.0938L16.2335 58.8975L17.1279 58.4502L18.0223 58.0029L15.62 53.1992L14.7256 53.6465ZM17.1279 58.4502L16.4475 59.183L21.2512 63.6439L21.9316 62.9111L22.6121 62.1784L17.8084 57.7174L17.1279 58.4502ZM21.9316 62.9111L21.7579 63.8959L27.5909 64.9252L27.7646 63.9404L27.9384 62.9556L22.1054 61.9263L21.9316 62.9111ZM27.7646 63.9404L28.1271 64.8724L34.3039 62.4701L33.9414 61.5381L33.5789 60.6061L27.4022 63.0084L27.7646 63.9404ZM33.9414 61.5381L34.8981 61.8292L37.2995 53.9376L36.3428 53.6465L35.3861 53.3554L32.9847 61.247L33.9414 61.5381ZM36.3428 53.6465L37.3206 53.437L36.2913 48.6333L35.3135 48.8428L34.3357 49.0523L35.365 53.856L36.3428 53.6465ZM35.3135 48.8428L35.6298 47.8941L31.5127 46.5211L31.1963 47.4697L30.8799 48.4184L34.9971 49.7914L35.3135 48.8428ZM31.1963 47.4697L31.0497 46.4805L21.785 47.8536L21.9316 48.8428L22.0782 49.832L31.3429 48.4589L31.1963 47.4697ZM53.5 44.0381L52.9854 43.1807L49.5538 45.2402L50.0684 46.0977L50.583 46.9551L54.0146 44.8955L53.5 44.0381ZM50.0684 46.0977H49.0684V49.5283H50.0684H51.0684V46.0977H50.0684ZM50.0684 49.5283L49.2491 50.1018L51.6515 53.5335L52.4707 52.96L53.2899 52.3865L50.8876 48.9548L50.0684 49.5283ZM52.4707 52.96L51.5762 53.4071L53.9776 58.2108L54.8721 57.7637L55.7665 57.3165L53.3652 52.5128L52.4707 52.96ZM54.8721 57.7637L54.4247 58.658L57.1698 60.0311L57.6172 59.1367L58.0645 58.2424L55.3194 56.8693L54.8721 57.7637ZM57.6172 59.1367V60.1367H61.3926V59.1367V58.1367H57.6172V59.1367ZM61.3926 59.1367L62.1326 59.8093L65.5632 56.0349L64.8232 55.3623L64.0832 54.6897L60.6526 58.4641L61.3926 59.1367ZM64.8232 55.3623H65.8232V44.0381H64.8232H63.8232V55.3623H64.8232ZM64.8232 44.0381L65.0481 43.0637L60.5871 42.0344L60.3623 43.0088L60.1375 43.9832L64.5984 45.0125L64.8232 44.0381ZM60.3623 43.0088L60.214 42.0199L53.3517 43.0491L53.5 44.0381L53.6483 45.027L60.5106 43.9977L60.3623 43.0088Z" fill="black"/>
<path d="M42.1761 39.7753C37.7839 32.9125 31.1957 28.6805 28.1074 28.1086L30.5094 5.80469L32.2251 23.6478L38.4015 13.3537V26.0498L43.8917 20.9027L41.8329 32.9125L45.6074 29.8243C45.1499 31.9975 44.0976 37.5792 42.1761 39.7753Z" fill="#6FABFF" stroke="black" stroke-width="2"/>
<path d="M30.5093 16.7852L29.1367 27.4224C31.3328 27.4224 35.0844 30.1675 36.6857 31.5401L33.9406 27.4224L35.6563 20.5597L31.8818 26.7361L31.1955 26.0499L30.5093 16.7852Z" fill="#6497DD"/>
</svg>
