<svg width="40" height="40" viewBox="0 0 40 40" fill="none" xmlns="http://www.w3.org/2000/svg">
<mask id="mask0_447_2243" style="mask-type:alpha" maskUnits="userSpaceOnUse" x="0" y="0" width="40" height="40">
<circle cx="20" cy="20" r="20" fill="#D9D9D9"/>
</mask>
<g mask="url(#mask0_447_2243)">
<mask id="mask1_447_2243" style="mask-type:alpha" maskUnits="userSpaceOnUse" x="0" y="-4" width="41" height="48">
<path d="M20.4907 -3.65625L40.9527 8.15748V31.7849L20.4907 43.5987L0.028759 31.7849V8.15748L20.4907 -3.65625Z" fill="black"/>
</mask>
<g mask="url(#mask1_447_2243)">
<path d="M20.4907 -3.65625L40.9527 8.15748V31.7849L20.4907 43.5987L0.028759 31.7849V8.15748L20.4907 -3.65625Z" fill="#8D9F53"/>
<ellipse cx="14.408" cy="14.1462" rx="8.32403" ry="8.5085" fill="#F7EE7F"/>
<path d="M20.1982 6.80737C20.1769 9.14176 20.147 13.7713 20.1982 13.6142L20.6467 14.1377L20.7747 8.50903C20.8814 8.35631 21.4022 8.14251 22.6316 8.50903C24.4885 9.29443 24.8087 8.24723 25.3209 7.06917C24.6806 7.78917 23.5921 7.78912 22.6316 7.06917C21.8632 6.28377 20.6892 6.56739 20.1982 6.80737Z" fill="#121212"/>
<mask id="path-6-outside-1_447_2243" maskUnits="userSpaceOnUse" x="9.01367" y="11.6338" width="23" height="36" fill="black">
<rect fill="white" x="9.01367" y="11.6338" width="23" height="36"/>
<path d="M19.7012 13.959C20.0931 13.5301 20.7668 13.5242 21.166 13.9463L22.0098 14.8389C22.1854 15.0245 22.2832 15.2708 22.2832 15.5264V18.3164C22.2832 18.8687 22.731 19.3164 23.2832 19.3164H24.7021C25.1316 19.3164 25.5135 19.0427 25.6504 18.6357L26.6768 15.582C26.7734 15.295 26.995 15.0675 27.2793 14.9629L28.1357 14.6475C28.9124 14.3617 29.6808 15.0889 29.4375 15.8799L27.0469 23.6504C26.9697 23.9013 26.7988 24.1027 26.5811 24.2256H26.8291L30.0312 39.6719L20.5547 46.1523L11.0137 39.6719L14.2793 24.2256H14.6045C14.3821 24.0999 14.2093 23.8917 14.1348 23.6338L11.8975 15.8984C11.6671 15.1019 12.4505 14.3872 13.2227 14.6895L13.9014 14.9551C14.181 15.0647 14.3964 15.2941 14.4883 15.5801L15.4648 18.6221C15.5976 19.0357 15.9826 19.3163 16.417 19.3164H17.6338C18.186 19.3163 18.6338 18.8686 18.6338 18.3164V15.5156C18.6338 15.2662 18.7273 15.026 18.8955 14.8418L19.7012 13.959Z"/>
</mask>
<path d="M19.7012 13.959C20.0931 13.5301 20.7668 13.5242 21.166 13.9463L22.0098 14.8389C22.1854 15.0245 22.2832 15.2708 22.2832 15.5264V18.3164C22.2832 18.8687 22.731 19.3164 23.2832 19.3164H24.7021C25.1316 19.3164 25.5135 19.0427 25.6504 18.6357L26.6768 15.582C26.7734 15.295 26.995 15.0675 27.2793 14.9629L28.1357 14.6475C28.9124 14.3617 29.6808 15.0889 29.4375 15.8799L27.0469 23.6504C26.9697 23.9013 26.7988 24.1027 26.5811 24.2256H26.8291L30.0312 39.6719L20.5547 46.1523L11.0137 39.6719L14.2793 24.2256H14.6045C14.3821 24.0999 14.2093 23.8917 14.1348 23.6338L11.8975 15.8984C11.6671 15.1019 12.4505 14.3872 13.2227 14.6895L13.9014 14.9551C14.181 15.0647 14.3964 15.2941 14.4883 15.5801L15.4648 18.6221C15.5976 19.0357 15.9826 19.3163 16.417 19.3164H17.6338C18.186 19.3163 18.6338 18.8686 18.6338 18.3164V15.5156C18.6338 15.2662 18.7273 15.026 18.8955 14.8418L19.7012 13.959Z" fill="#5B6057"/>
<path d="M19.7012 13.959L18.963 13.2844L18.9625 13.2849L19.7012 13.959ZM21.166 13.9463L21.8927 13.2593L21.8926 13.2592L21.166 13.9463ZM22.0098 14.8389L21.2831 15.5258L21.2832 15.526L22.0098 14.8389ZM23.2832 19.3164L23.2831 20.3164H23.2832V19.3164ZM24.7021 19.3164L24.7021 20.3164L24.7022 20.3164L24.7021 19.3164ZM25.6504 18.6357L26.5982 18.9545L26.5983 18.9543L25.6504 18.6357ZM26.6768 15.582L25.729 15.2631L25.7289 15.2634L26.6768 15.582ZM27.2793 14.9629L27.6247 15.9013L27.6249 15.9013L27.2793 14.9629ZM28.1357 14.6475L27.7904 13.709L27.7901 13.7091L28.1357 14.6475ZM29.4375 15.8799L30.3933 16.1739L30.3933 16.1739L29.4375 15.8799ZM27.0469 23.6504L26.0911 23.3563L26.0911 23.3563L27.0469 23.6504ZM26.5811 24.2256L26.0896 23.3547L22.7743 25.2256H26.5811V24.2256ZM26.8291 24.2256L27.8083 24.0226L27.6431 23.2256H26.8291V24.2256ZM30.0312 39.6719L30.5957 40.4973L31.1457 40.1212L31.0104 39.4689L30.0312 39.6719ZM20.5547 46.1523L19.9928 46.9796L20.5566 47.3625L21.1192 46.9778L20.5547 46.1523ZM11.0137 39.6719L10.0353 39.465L9.89643 40.1219L10.4518 40.4991L11.0137 39.6719ZM14.2793 24.2256V23.2256H13.4686L13.3009 24.0187L14.2793 24.2256ZM14.6045 24.2256V25.2256H18.4072L15.0964 23.3549L14.6045 24.2256ZM14.1348 23.6338L15.0954 23.356L15.0954 23.3559L14.1348 23.6338ZM11.8975 15.8984L10.9368 16.1762L10.9368 16.1763L11.8975 15.8984ZM13.2227 14.6895L12.8581 15.6206L12.8582 15.6207L13.2227 14.6895ZM13.9014 14.9551L14.2663 14.024L14.2658 14.0239L13.9014 14.9551ZM14.4883 15.5801L15.4404 15.2744L15.4403 15.2741L14.4883 15.5801ZM15.4648 18.6221L16.417 18.3164L16.417 18.3164L15.4648 18.6221ZM16.417 19.3164L16.4166 20.3164H16.417V19.3164ZM17.6338 19.3164L17.6338 20.3164L17.6341 20.3164L17.6338 19.3164ZM18.6338 15.5156L17.6338 15.5154V15.5156H18.6338ZM18.8955 14.8418L19.634 15.5161L19.6342 15.5159L18.8955 14.8418ZM19.7012 13.959L20.4394 14.6336L20.4395 14.6334L21.166 13.9463L21.8926 13.2592C21.0939 12.4147 19.7465 12.4269 18.963 13.2844L19.7012 13.959ZM21.166 13.9463L20.4393 14.6332L21.2831 15.5258L22.0098 14.8389L22.7365 14.1519L21.8927 13.2593L21.166 13.9463ZM22.0098 14.8389L21.2832 15.526L21.2832 15.5264H22.2832H23.2832C23.2832 15.0157 23.0878 14.5234 22.7363 14.1518L22.0098 14.8389ZM22.2832 15.5264H21.2832V18.3164H22.2832H23.2832V15.5264H22.2832ZM22.2832 18.3164H21.2832C21.2832 19.421 22.1787 20.3163 23.2831 20.3164L23.2832 19.3164L23.2833 18.3164L23.2832 18.3164H22.2832ZM23.2832 19.3164V20.3164H24.7021V19.3164V18.3164H23.2832V19.3164ZM24.7021 19.3164L24.7022 20.3164C25.5596 20.3163 26.324 19.7699 26.5982 18.9545L25.6504 18.6357L24.7026 18.3169L24.7021 18.3164L24.7021 19.3164ZM25.6504 18.6357L26.5983 18.9543L27.6247 15.9006L26.6768 15.582L25.7289 15.2634L24.7025 18.3172L25.6504 18.6357ZM26.6768 15.582L27.6245 15.901L27.6247 15.9013L27.2793 14.9629L26.9339 14.0244C26.3663 14.2334 25.9225 14.688 25.729 15.2631L26.6768 15.582ZM27.2793 14.9629L27.6249 15.9013L28.4813 15.5858L28.1357 14.6475L27.7901 13.7091L26.9337 14.0245L27.2793 14.9629ZM28.1357 14.6475L28.4811 15.5859L28.4817 15.5858L29.4375 15.8799L30.3933 16.1739C30.8803 14.591 29.3426 13.1378 27.7904 13.709L28.1357 14.6475ZM29.4375 15.8799L28.4817 15.5858L26.0911 23.3563L27.0469 23.6504L28.0027 23.9444L30.3933 16.1739L29.4375 15.8799ZM27.0469 23.6504L26.0911 23.3563C26.0916 23.3546 26.0927 23.3527 26.0933 23.352C26.0936 23.3517 26.0925 23.353 26.0896 23.3547L26.5811 24.2256L27.0725 25.0965C27.5018 24.8542 27.8465 24.4521 28.0027 23.9444L27.0469 23.6504ZM26.5811 24.2256V25.2256H26.8291V24.2256V23.2256H26.5811V24.2256ZM26.8291 24.2256L25.8499 24.4286L29.0521 39.8749L30.0312 39.6719L31.0104 39.4689L27.8083 24.0226L26.8291 24.2256ZM30.0312 39.6719L29.4668 38.8464L19.9902 45.3269L20.5547 46.1523L21.1192 46.9778L30.5957 40.4973L30.0312 39.6719ZM20.5547 46.1523L21.1166 45.3251L11.5755 38.8446L11.0137 39.6719L10.4518 40.4991L19.9928 46.9796L20.5547 46.1523ZM11.0137 39.6719L11.992 39.8787L15.2577 24.4324L14.2793 24.2256L13.3009 24.0187L10.0353 39.465L11.0137 39.6719ZM14.2793 24.2256V25.2256H14.6045V24.2256V23.2256H14.2793V24.2256ZM14.6045 24.2256L15.0964 23.3549C15.0944 23.3538 15.0937 23.3529 15.0939 23.3531C15.0941 23.3533 15.0944 23.3538 15.0948 23.3545C15.095 23.3549 15.0951 23.3552 15.0952 23.3555C15.0953 23.3556 15.0953 23.3558 15.0954 23.3558C15.0954 23.3559 15.0954 23.356 15.0954 23.356L14.1348 23.6338L13.1741 23.9116C13.3244 24.4312 13.672 24.8473 14.1126 25.0962L14.6045 24.2256ZM14.1348 23.6338L15.0954 23.3559L12.8581 15.6206L11.8975 15.8984L10.9368 16.1763L13.1741 23.9116L14.1348 23.6338ZM11.8975 15.8984L12.8581 15.6206L12.8581 15.6206L13.2227 14.6895L13.5872 13.7583C12.043 13.1538 10.4761 14.5831 10.9368 16.1762L11.8975 15.8984ZM13.2227 14.6895L12.8582 15.6207L13.5369 15.8863L13.9014 14.9551L14.2658 14.0239L13.5871 13.7582L13.2227 14.6895ZM13.9014 14.9551L13.5365 15.8861L13.5362 15.8861L14.4883 15.5801L15.4403 15.2741C15.2566 14.7025 14.8258 14.2434 14.2663 14.024L13.9014 14.9551ZM14.4883 15.5801L13.5361 15.8857L14.5127 18.9277L15.4648 18.6221L16.417 18.3164L15.4404 15.2744L14.4883 15.5801ZM15.4648 18.6221L14.5127 18.9277C14.7784 19.7554 15.5483 20.3161 16.4166 20.3164L16.417 19.3164L16.4173 18.3164L16.417 18.3164L15.4648 18.6221ZM16.417 19.3164V20.3164H17.6338V19.3164V18.3164H16.417V19.3164ZM17.6338 19.3164L17.6341 20.3164C18.738 20.3161 19.6338 19.4211 19.6338 18.3164H18.6338H17.6338L17.6335 18.3164L17.6338 19.3164ZM18.6338 18.3164H19.6338V15.5156H18.6338H17.6338V18.3164H18.6338ZM18.6338 15.5156L19.6338 15.5159L19.634 15.5161L18.8955 14.8418L18.157 14.1675C17.8211 14.5354 17.6339 15.0158 17.6338 15.5154L18.6338 15.5156ZM18.8955 14.8418L19.6342 15.5159L20.4398 14.6331L19.7012 13.959L18.9625 13.2849L18.1569 14.1677L18.8955 14.8418Z" fill="black" mask="url(#path-6-outside-1_447_2243)"/>
<rect x="17.0977" y="29.8545" width="6.91535" height="17.1479" rx="3.45768" fill="#121212"/>
<path d="M26.2536 29.3314L27.8543 41.1779L29.6472 39.5416L27.4061 28.9387L26.2536 23.31L29.0709 15.5215L28.3666 15.9796L25.2931 22.8519L19.9785 24.2263H24.4607L26.2536 29.3314Z" fill="#51544E"/>
</g>
</g>
<circle cx="20" cy="20" r="19.5" stroke="black"/>
</svg>
