<svg width="40" height="40" viewBox="0 0 40 40" fill="none" xmlns="http://www.w3.org/2000/svg">
<mask id="mask0_447_1973" style="mask-type:alpha" maskUnits="userSpaceOnUse" x="0" y="0" width="40" height="40">
<circle cx="19.9992" cy="20.1955" r="19.8039" fill="#D9D9D9"/>
</mask>
<g mask="url(#mask0_447_1973)">
<mask id="mask1_447_1973" style="mask-type:alpha" maskUnits="userSpaceOnUse" x="-1" y="-4" width="42" height="48">
<path d="M20.0339 -3.5293L40.9493 8.28443V31.9119L20.0339 43.7256L-0.881559 31.9119V8.28443L20.0339 -3.5293Z" fill="#6FABFF"/>
</mask>
<g mask="url(#mask1_447_1973)">
<path d="M20.0339 -3.5293L40.9493 8.28443V31.9119L20.0339 43.7256L-0.881559 31.9119V8.28443L20.0339 -3.5293Z" fill="#6FABFF"/>
<path d="M3.63538 21.2995L-0.712891 26.8514V38.4715L7.98365 40.4082L14.1832 37.6538L19.9693 40.4082L17.6704 30.5956L16.7232 27.583L18.5314 24.7855L16.7232 21.3856L18.5314 19.1046H22.1909L24.2574 20.3096V23.4514L24.8601 26.8514L25.0744 30.7011L19.9693 39.3405L27.6154 43.4639L41.306 35.3298L40.488 25.6463L37.9479 21.9881L35.1496 21.3856L34.5468 19.1046L32.4803 18.3729L31.0165 13.897L26.41 12.9072L24.8601 8.81858L21.3298 5.63379L16.7232 7.57048L15.5178 11.3578H10.9112L7.98365 16.1058L4.96999 17.5122L3.63538 21.2995Z" fill="#5B6057"/>
<path d="M6.42153 27.4934L-1.89062 33.0567L1.51278 36.1328L6.42153 34.6929L4.45803 30.7005H7.79598L11.723 28.8024V26.5771L13.9483 25.7263L12.4429 23.7628V21.3411L11.0685 20.2939L10.0213 22.9774L7.27238 23.7628L6.42153 27.4934Z" fill="#51544E"/>
<path d="M15.4512 11.459L11.5897 15.4514L8.90625 17.4804L12.8332 16.8913L15.4512 15.4514L16.7602 13.9461L15.4512 11.459Z" fill="#51544E"/>
<path d="M24.551 19.9012L23.8965 16.1706L24.551 14.0762L25.9254 17.4141L29.0016 16.8905V19.9012L31.2923 20.8175L32.6668 22.6501L32.2086 25.2681L29.6561 22.4538H27.2344L24.551 19.9012Z" fill="#51544E"/>
<path d="M38.3408 27.1811L41.6384 29.1526L42.4808 31.2788L38.7514 30.3016L36.0865 33.7383L33.9467 31.6204L31.0339 33.2608L28.3744 33.3426L26.9661 31.0439L31.4864 30.4776L33.8773 28.0621L38.3408 27.1811Z" fill="#51544E"/>
<rect x="16.041" y="18.1992" width="9.6866" height="15.8389" rx="4.8433" fill="black"/>
<path d="M1.77274 27.4932L-8.56836 30.962L-6.21216 41.4995L12.572 42.8739L32.5997 46.6046L45.886 41.4995L45.1661 32.2056L39.8646 29.5876L30.2435 28.6058L22.1931 30.962L14.2082 29.5876L1.77274 27.4932Z" fill="#9EB25D"/>
<path d="M7.26934 34.4319L-1.56641 42.2204L2.81874 43.8567L26.4462 49.2236H40.8452L52.168 41.5005L43.1359 27.4287L31.8785 34.4319L18.4613 36.8535L7.26934 34.4319Z" fill="#8D9F53"/>
</g>
</g>
<circle cx="20" cy="20" r="19.5" stroke="black"/>
</svg>
