<svg width="40" height="40" viewBox="0 0 40 40" fill="none" xmlns="http://www.w3.org/2000/svg">
<mask id="mask0_447_2239" style="mask-type:alpha" maskUnits="userSpaceOnUse" x="0" y="0" width="40" height="40">
<circle cx="20" cy="20" r="19.5" fill="#D9D9D9" stroke="black"/>
</mask>
<g mask="url(#mask0_447_2239)">
<mask id="mask1_447_2239" style="mask-type:alpha" maskUnits="userSpaceOnUse" x="0" y="-4" width="41" height="48">
<path d="M20.4907 -3.5293L40.9527 8.28443V31.9119L20.4907 43.7256L0.028759 31.9119V8.28443L20.4907 -3.5293Z" fill="#6FABFF"/>
</mask>
<g mask="url(#mask1_447_2239)">
<path d="M20.4907 -3.5293L40.9527 8.28443V31.9119L20.4907 43.7256L0.028759 31.9119V8.28443L20.4907 -3.5293Z" fill="#6FABFF"/>
<path d="M22.0947 5.2666L25.5488 8.45117L25.6367 8.53223L25.6787 8.64453L27.0996 12.4766L31.3398 13.4082L31.6211 13.4707L31.709 13.7451L33.0664 17.9854L34.8564 18.6348L35.1045 18.7246L35.1709 18.9795L35.6836 20.9629L38.1211 21.5L38.3154 21.543L38.4277 21.707L40.9131 25.3652L40.9863 25.4736L40.9971 25.6055L41.7979 35.2891L41.8232 35.5967L41.5586 35.7568L28.165 43.8916L27.918 44.042L27.6641 43.9014L20.8809 40.1621L20.9121 40.2969L21.1465 41.3154L20.2061 40.8574L14.7568 38.2061L8.90625 40.8633L8.75293 40.9336L8.58887 40.8955L0.0800781 38.959L-0.308594 38.8701V26.6816L-0.205078 26.5469L3.99902 21.0596L5.34668 17.1514L5.53613 17.0605L8.34863 15.7188L11.1357 11.0996L11.2812 10.8574H15.7021L16.7725 7.42188L16.8408 7.20215L17.0518 7.11133L21.5586 5.1748L21.8564 5.0459L22.0947 5.2666ZM17.8408 21.4385L19.4619 24.5547L19.5947 24.8096L19.4414 25.0527L17.7949 27.6553L18.6543 30.4482L18.6592 30.4658L18.6631 30.4844L20.4521 38.293L24.9111 30.5791L24.7119 26.9053L24.1279 23.5371L24.1201 23.4941V20.5928L22.4609 19.6045H19.2637L17.8408 21.4385Z" fill="#5B6057" stroke="black"/>
<path d="M7.171 27.4934L-0.960938 33.0567L2.36868 36.1328L7.171 34.6929L5.25007 30.7005H8.51566L12.3575 28.8024V26.5771L14.5346 25.7263L13.0619 23.7628V21.3411L11.7172 20.2939L10.6927 22.9774L8.00341 23.7628L7.171 27.4934Z" fill="#51544E"/>
<path d="M16.0086 11.459L12.2307 15.4514L9.60547 17.4804L13.4473 16.8913L16.0086 15.4514L17.2892 13.9461L16.0086 11.459Z" fill="#51544E"/>
<path d="M24.9079 19.9022L24.2676 16.1715L24.9079 14.0771L26.2525 17.4151L29.262 16.8915V19.9022L31.5031 20.8185L32.8477 22.6511L32.3995 25.2691L29.9023 22.4547H27.5332L24.9079 19.9022Z" fill="#51544E"/>
<path d="M38.3996 27.182L41.6258 29.1536L42.4499 31.2798L38.8014 30.3026L36.1942 33.7393L34.1008 31.6214L31.2511 33.2617L28.6493 33.3435L27.2715 31.0449L31.6938 30.4786L34.0329 28.0631L38.3996 27.182Z" fill="#51544E"/>
<rect x="16.584" y="18.2002" width="9.47659" height="15.8389" rx="4.7383" fill="black"/>
<path d="M2.62667 27.4941L-7.49023 30.963L-5.18512 41.5004L13.1918 42.8749L32.7853 46.6055L45.7836 41.5004L45.0792 32.2065L39.8927 29.5885L30.4802 28.6068L22.6044 30.963L14.7926 29.5885L2.62667 27.4941Z" fill="#9EB25D"/>
<path d="M8.00356 34.4319L-0.640625 42.2204L3.64945 43.8567L26.7647 49.2236H40.8515L51.9289 41.5005L43.0926 27.4287L32.0792 34.4319L18.9529 36.8535L8.00356 34.4319Z" fill="#8D9F53"/>
</g>
</g>
<circle cx="20" cy="20" r="19.5" stroke="black"/>
</svg>
