<svg width="20" height="19" viewBox="0 0 20 19" fill="none" xmlns="http://www.w3.org/2000/svg">
<circle cx="11" cy="10" r="9" fill="#E4DC75"/>
<circle cx="9" cy="9" r="9" fill="#F7EE7F"/>
<path d="M10.4545 8.07812C10.4048 7.9053 10.335 7.7526 10.245 7.62003C10.1551 7.48509 10.045 7.37145 9.91477 7.27912C9.78693 7.18442 9.64015 7.11222 9.47443 7.0625C9.31108 7.01278 9.12997 6.98793 8.93111 6.98793C8.55942 6.98793 8.23272 7.08026 7.95099 7.26491C7.67164 7.44957 7.45384 7.71828 7.29759 8.07102C7.14134 8.4214 7.06321 8.84991 7.06321 9.35653C7.06321 9.86316 7.14015 10.294 7.29403 10.6491C7.44792 11.0043 7.66572 11.2753 7.94744 11.4624C8.22917 11.647 8.56179 11.7393 8.94531 11.7393C9.29332 11.7393 9.59044 11.6778 9.83665 11.5547C10.0852 11.4292 10.2746 11.2528 10.4048 11.0256C10.5374 10.7983 10.6037 10.5296 10.6037 10.2195L10.9162 10.2656H9.04119V9.10795H12.0845V10.0241C12.0845 10.6634 11.9496 11.2126 11.6797 11.6719C11.4098 12.1288 11.0381 12.4815 10.5646 12.7301C10.0911 12.9763 9.54901 13.0994 8.93821 13.0994C8.25639 13.0994 7.65743 12.9491 7.14134 12.6484C6.62524 12.3454 6.22277 11.9157 5.93395 11.3594C5.64749 10.8007 5.50426 10.1378 5.50426 9.37074C5.50426 8.78125 5.58949 8.25568 5.75994 7.79403C5.93277 7.33002 6.17424 6.93703 6.48438 6.61506C6.79451 6.29309 7.15554 6.04806 7.56747 5.87997C7.9794 5.71188 8.42566 5.62784 8.90625 5.62784C9.31818 5.62784 9.7017 5.68821 10.0568 5.80895C10.4119 5.92732 10.7268 6.09541 11.0014 6.31321C11.2784 6.53101 11.5045 6.79025 11.6797 7.09091C11.8549 7.3892 11.9673 7.71828 12.017 8.07812H10.4545Z" fill="black"/>
</svg>
