<svg width="40" height="40" viewBox="0 0 40 40" fill="none" xmlns="http://www.w3.org/2000/svg">
<mask id="mask0_447_2250" style="mask-type:alpha" maskUnits="userSpaceOnUse" x="0" y="0" width="40" height="40">
<circle cx="20" cy="20" r="20" fill="#D9D9D9"/>
</mask>
<g mask="url(#mask0_447_2250)">
<mask id="mask1_447_2250" style="mask-type:alpha" maskUnits="userSpaceOnUse" x="0" y="-4" width="42" height="48">
<path d="M20.686 -3.72559L41.148 8.08814V31.7156L20.686 43.5293L0.224072 31.7156V8.08814L20.686 -3.72559Z" fill="black"/>
</mask>
<g mask="url(#mask1_447_2250)">
<path d="M20.686 -3.72559L41.148 8.08814V31.7156L20.686 43.5293L0.224072 31.7156V8.08814L20.686 -3.72559Z" fill="#F7EE7F"/>
<path d="M9.60809 29.9153L-2.04556 31.5515C-4.7562 32.9914 -10.2928 36.133 -10.7538 37.1802C-11.2148 38.2274 4.54964 49.703 12.4895 55.3099L32.8514 58.5824L49.7556 38.4892L42.1999 26.0537L35.0284 29.9153H23.4388H9.60809Z" fill="#8D9F53"/>
<rect x="14.444" y="25.486" width="0.704341" height="11.993" rx="0.352171" fill="#5B6057" stroke="black" stroke-width="0.704341"/>
<path d="M14.7959 8.48633C19.1499 8.48663 22.8114 12.6669 22.8115 18C22.8115 23.3332 19.15 27.5134 14.7959 27.5137C10.4416 27.5137 6.7793 23.3334 6.7793 18C6.77938 12.6667 10.4417 8.48633 14.7959 8.48633Z" fill="#8D9F53" stroke="black"/>
<rect x="23.2988" y="32.7031" width="3.7383" height="4.6287" rx="1.86915" fill="#5B6057" stroke="black"/>
<mask id="path-8-outside-1_447_2250" maskUnits="userSpaceOnUse" x="15.9922" y="3.14355" width="18" height="33" fill="black">
<rect fill="white" x="15.9922" y="3.14355" width="18" height="33"/>
<path d="M21.1143 7.45801C23.0501 4.37168 27.5476 4.37163 29.4834 7.45801C30.8724 9.67274 30.2518 12.3316 28.5146 13.834C28.8995 14.159 29.2455 14.5509 29.5342 15.0117L30.6504 16.792C32.0373 19.0062 31.4412 21.6577 29.7324 23.1875L31.876 26.6113C33.9603 29.9414 31.5662 34.2645 27.6377 34.2646H22.958C19.0295 34.2645 16.6354 29.9414 18.7197 26.6113L20.8613 23.1875C19.1529 21.6576 18.5575 19.0061 19.9443 16.792L21.0596 15.0117C21.3484 14.5507 21.695 14.1581 22.0801 13.833C20.3445 12.3303 19.7258 9.67187 21.1143 7.45801Z"/>
</mask>
<path d="M21.1143 7.45801C23.0501 4.37168 27.5476 4.37163 29.4834 7.45801C30.8724 9.67274 30.2518 12.3316 28.5146 13.834C28.8995 14.159 29.2455 14.5509 29.5342 15.0117L30.6504 16.792C32.0373 19.0062 31.4412 21.6577 29.7324 23.1875L31.876 26.6113C33.9603 29.9414 31.5662 34.2645 27.6377 34.2646H22.958C19.0295 34.2645 16.6354 29.9414 18.7197 26.6113L20.8613 23.1875C19.1529 21.6576 18.5575 19.0061 19.9443 16.792L21.0596 15.0117C21.3484 14.5507 21.695 14.1581 22.0801 13.833C20.3445 12.3303 19.7258 9.67187 21.1143 7.45801Z" fill="#9EB25D"/>
<path d="M21.1143 7.45801L20.2671 6.92665L20.2671 6.92669L21.1143 7.45801ZM29.4834 7.45801L30.3306 6.92669L30.3306 6.92667L29.4834 7.45801ZM28.5146 13.834L27.8605 13.0776L26.9755 13.843L27.8694 14.598L28.5146 13.834ZM29.5342 15.0117L28.6867 15.5426L28.6869 15.5429L29.5342 15.0117ZM30.6504 16.792L31.4979 16.2612L31.4976 16.2608L30.6504 16.792ZM29.7324 23.1875L29.0654 22.4425L28.4379 23.0043L28.8848 23.7182L29.7324 23.1875ZM31.876 26.6113L32.7236 26.0808L32.7236 26.0807L31.876 26.6113ZM27.6377 34.2646L27.6377 35.2646L27.6377 35.2646L27.6377 34.2646ZM22.958 34.2646L22.958 35.2646H22.958V34.2646ZM18.7197 26.6113L19.5674 27.1419L19.5675 27.1416L18.7197 26.6113ZM20.8613 23.1875L21.7091 23.7178L22.1556 23.0041L21.5284 22.4425L20.8613 23.1875ZM19.9443 16.792L19.0969 16.2611L19.0969 16.2611L19.9443 16.792ZM21.0596 15.0117L20.2121 14.4808L20.2121 14.4808L21.0596 15.0117ZM22.0801 13.833L22.7252 14.5971L23.6189 13.8426L22.7346 13.077L22.0801 13.833ZM21.1143 7.45801L21.9614 7.98936C23.5053 5.52788 27.0924 5.52787 28.6362 7.98935L29.4834 7.45801L30.3306 6.92667C28.0028 3.21539 22.5948 3.21549 20.2671 6.92665L21.1143 7.45801ZM29.4834 7.45801L28.6362 7.98932C29.7397 9.74886 29.2586 11.8685 27.8605 13.0776L28.5146 13.834L29.1688 14.5904C31.2451 12.7947 32.005 9.59662 30.3306 6.92669L29.4834 7.45801ZM28.5146 13.834L27.8694 14.598C28.1767 14.8575 28.454 15.1711 28.6867 15.5426L29.5342 15.0117L30.3816 14.4808C30.037 13.9307 29.6223 13.4605 29.1599 13.07L28.5146 13.834ZM29.5342 15.0117L28.6869 15.5429L29.8032 17.3232L30.6504 16.792L31.4976 16.2608L30.3814 14.4805L29.5342 15.0117ZM30.6504 16.792L29.8029 17.3228C30.9084 19.0877 30.4449 21.2075 29.0654 22.4425L29.7324 23.1875L30.3994 23.9325C32.4375 22.1079 33.1662 18.9248 31.4979 16.2612L30.6504 16.792ZM29.7324 23.1875L28.8848 23.7182L31.0284 27.142L31.876 26.6113L32.7236 26.0807L30.58 22.6568L29.7324 23.1875ZM31.876 26.6113L31.0283 27.1419C32.6958 29.806 30.7804 33.2645 27.6377 33.2646L27.6377 34.2646L27.6377 35.2646C32.352 35.2645 35.2247 30.0768 32.7236 26.0808L31.876 26.6113ZM27.6377 34.2646V33.2646H22.958V34.2646V35.2646H27.6377V34.2646ZM22.958 34.2646L22.958 33.2646C19.8153 33.2646 17.8999 29.806 19.5674 27.1419L18.7197 26.6113L17.8721 26.0808C15.371 30.0768 18.2437 35.2645 22.958 35.2646L22.958 34.2646ZM18.7197 26.6113L19.5675 27.1416L21.7091 23.7178L20.8613 23.1875L20.0135 22.6572L17.8719 26.081L18.7197 26.6113ZM20.8613 23.1875L21.5284 22.4425C20.1494 21.2076 19.6863 19.0878 20.7918 17.3228L19.9443 16.792L19.0969 16.2611C17.4287 18.9244 18.1564 22.1076 20.1942 23.9325L20.8613 23.1875ZM19.9443 16.792L20.7918 17.3229L21.907 15.5426L21.0596 15.0117L20.2121 14.4808L19.0969 16.2611L19.9443 16.792ZM21.0596 15.0117L21.907 15.5426C22.1399 15.1709 22.4178 14.8566 22.7252 14.5971L22.0801 13.833L21.435 13.0689C20.9722 13.4596 20.5569 13.9304 20.2121 14.4808L21.0596 15.0117ZM22.0801 13.833L22.7346 13.077C21.3381 11.8679 20.8582 9.74849 21.9614 7.98932L21.1143 7.45801L20.2671 6.92669C18.5935 9.59525 19.3508 12.7927 21.4255 14.589L22.0801 13.833Z" fill="black" mask="url(#path-8-outside-1_447_2250)"/>
<path d="M16.9871 35.3511L5.75447 33.1465L-0.123047 32.0752V40.2427C-0.123047 41.345 3.7953 46.1217 5.75447 48.3722C10.9789 48.0967 21.6107 47.5455 22.3421 47.5455C23.0736 47.5455 28.655 48.0967 31.3543 48.3722L42.5216 47.5455L38.1461 44.0319L29.0686 37.7625L16.9871 35.3511Z" fill="#6FABFF"/>
<path d="M28.5 29.5L21.5 33.5L30.5 33L31.5 28.5L28.1141 24.0254L28.5 29.5Z" fill="#8D9F53"/>
<path d="M31 21L27.5 22L29 15.5L31 21Z" fill="#8D9F53"/>
<path d="M28.5 12.5L28 6.5L29.5 11.5L28.5 12.5Z" fill="#8D9F53"/>
<path d="M15.1162 37.901L-1.91602 35.8721L0.389102 39.5373H12.1068L18.766 45.6241L33.4291 45.166L26.3217 42.0244L15.1162 37.901Z" fill="#5E96E4"/>
</g>
</g>
<circle cx="20" cy="20" r="19.5" stroke="black"/>
</svg>
