<svg width="20" height="20" viewBox="0 0 20 20" fill="none" xmlns="http://www.w3.org/2000/svg">
<mask id="mask0_449_2258" style="mask-type:alpha" maskUnits="userSpaceOnUse" x="0" y="0" width="18" height="20">
<path d="M8.89836 0.0264342C8.96162 -0.00881137 9.03873 -0.0088114 9.10198 0.0264341L17.8938 4.92547C17.9596 4.96214 18.0003 5.03133 18.0003 5.10638V14.8936C18.0003 14.9687 17.9596 15.0379 17.8938 15.0745L9.10198 19.9736C9.03873 20.0088 8.96162 20.0088 8.89836 19.9736L0.106562 15.0745C0.0407565 15.0379 0 14.9687 0 14.8936V5.10638C0 5.03133 0.0407561 4.96214 0.106562 4.92547L8.89836 0.0264342Z" fill="#323820"/>
</mask>
<g mask="url(#mask0_449_2258)">
<path d="M8.89836 0.0264342C8.96162 -0.00881137 9.03873 -0.0088114 9.10198 0.0264341L17.8938 4.92547C17.9596 4.96214 18.0003 5.03133 18.0003 5.10638V14.8936C18.0003 14.9687 17.9596 15.0379 17.8938 15.0745L9.10198 19.9736C9.03873 20.0088 8.96162 20.0088 8.89836 19.9736L0.106562 15.0745C0.0407565 15.0379 0 14.9687 0 14.8936V5.10638C0 5.03133 0.0407561 4.96214 0.106562 4.92547L8.89836 0.0264342Z" fill="#9EB25D"/>
<path d="M9.8083 8.28976C9.8083 9.79274 8.56053 11.0112 7.02134 11.0112C5.48214 11.0112 4.23438 9.79274 4.23438 8.28976C4.23438 6.78677 5.48214 5.56836 7.02134 5.56836C8.56053 5.56836 9.8083 6.78677 9.8083 8.28976Z" fill="#F9FCBC"/>
<path d="M3.71241 5.69745L0.326384 10.6219L-0.845703 18.0085L3.71241 22.4146L17.3868 21.8444L20.1216 10.6219L16.2147 5.69745L13.61 6.60459L12.3077 4.6089L11.5263 5.25685L9.62494 2.66504L6.05659 8.10784L3.71241 5.69745Z" fill="#8D9F53"/>
<path d="M7.8288 16.0645C5.56794 16.4667 1.57767 17.1271 0.509766 18.6563C3.48774 20.3582 9.52181 23.8036 9.83437 23.9695C10.1469 24.1354 12.3088 22.4835 13.3506 21.6369L14.5748 16.7643L13.8716 10.8809C12.3956 12.0645 11.7618 15.3647 7.8288 16.0645Z" fill="#5B6057"/>
<path d="M9.35042 9.08105H2.21484V13.9684L8.91796 15.0749L9.35042 14.3372L16.8567 15.1057V9.08105H14.5708H9.35042Z" fill="black"/>
<path d="M5.65677 14.2772C5.85446 16.4411 5.36846 18.1501 5.10075 18.7342L0.127496 16.0292C0.05541 15.8038 -0.0887609 15.1378 -0.0887609 14.2772C-0.0887609 13.2014 -0.67567 11.3571 -0.0887609 9.8202C0.745268 8.28331 1.79553 8.89807 2.1971 8.89807C2.84578 8.49848 3.24735 8.65216 3.67981 8.89807C4.29761 8.89807 4.3285 8.9288 4.91541 8.89807C5.93478 7.33044 6.21279 7.02306 6.67614 6.77716C8.25152 6.71568 6.15101 10.2505 6.21279 10.4657C6.26221 10.6378 6.02745 11.4596 5.90389 11.8489C5.80092 11.9411 5.60735 12.5559 5.65677 14.2772Z" fill="#F7EE7F"/>
<path d="M17.1479 16.6133L11.4195 19.6677C11.7901 18.3644 10.6713 15.8141 10.1049 15.1686L11.4195 14.5223L16.3756 15.0141V9.48208H13.8426C13.5955 9.59479 12.9839 9.88782 12.5144 10.1583C11.9275 10.4964 11.5121 9.91162 11.3268 9.7272C11.3268 9.57965 10.5168 9.34889 10.1049 9.29766C9.77546 9.29766 9.09794 9.25462 9.0238 9.08249C9.3327 8.6829 9.85783 8.89807 10.3212 8.89807C10.9884 8.57839 11.5465 8.88782 11.7421 9.08249C11.8142 9.02102 12.0695 8.89807 12.5144 8.89807C11.7421 5.94724 16.5609 9.38987 16.6845 9.48208C16.7834 9.55586 17.9949 12.8387 18.3244 14.4063L17.1479 16.6133Z" fill="#F7EE7F"/>
<path d="M3.5464 8.95563C3.7673 8.75049 4.06629 8.69685 4.32972 8.70729C4.59365 8.71774 4.8459 8.79309 4.99838 8.87479L4.87487 9.10299C4.75963 9.04125 4.5465 8.97521 4.31935 8.96621C4.0917 8.9572 3.87387 9.00601 3.7241 9.14511C3.6433 9.22015 3.54026 9.3541 3.42456 9.52684C3.31042 9.69725 3.18938 9.8971 3.07207 10.0976C2.84171 10.4915 2.61852 10.9017 2.50633 11.0612L2.29297 10.9126C2.397 10.7647 2.60626 10.3788 2.84696 9.96725C2.96519 9.76514 3.08935 9.56 3.20785 9.38308C3.32479 9.20849 3.44186 9.05272 3.5464 8.95563Z" fill="black"/>
<path d="M2.81851 8.56468C3.21081 8.55736 3.57945 8.72944 3.77881 8.88815L3.61607 9.09053C3.45506 8.96236 3.14411 8.81787 2.82339 8.82386C2.66567 8.82681 2.50759 8.86598 2.36203 8.95937C2.21657 9.05271 2.07641 9.2048 1.96162 9.44468C1.71147 9.9674 1.50425 10.2943 1.35523 10.5011C1.28074 10.6045 1.22142 10.677 1.18043 10.727C1.15932 10.7527 1.14555 10.7696 1.13612 10.7822C1.12379 10.7988 1.13056 10.7934 1.13526 10.777L0.884766 10.7058C0.894613 10.6715 0.915853 10.6426 0.926837 10.6279C0.940734 10.6092 0.959149 10.5869 0.978573 10.5632C1.01867 10.5142 1.07389 10.4467 1.14355 10.35C1.28283 10.1567 1.48235 9.84327 1.72644 9.33321C1.85876 9.05671 2.0288 8.86479 2.22086 8.74155C2.41284 8.61837 2.61971 8.56839 2.81851 8.56468Z" fill="black"/>
<path d="M6.50837 6.76627C6.68117 6.69258 6.85305 6.69705 7.02559 6.7528L7.06013 6.76465L7.06547 6.76657L7.07046 6.76926C7.18391 6.83004 7.26166 6.91053 7.30996 7.00723C7.35764 7.10267 7.37411 7.20886 7.37411 7.31799C7.37411 7.53125 7.30937 7.78272 7.26464 8.02011C7.2448 8.12534 7.19165 8.29135 7.12102 8.48673C7.04982 8.68373 6.95906 8.91552 6.86183 9.15458C6.67069 9.62454 6.45365 10.1247 6.30916 10.4487C6.31506 10.6363 6.25107 11.1433 5.96364 11.906C5.60004 12.8709 5.65926 13.4677 5.78309 15.2237C5.88303 16.6409 5.44059 18.1116 5.15712 18.6758L5.15167 18.6855C5.12291 18.7315 5.07244 18.7404 5.04154 18.7408C5.00706 18.7413 4.96987 18.7328 4.9375 18.7232C4.87248 18.7039 4.7964 18.6705 4.74933 18.6517L4.74505 18.65L4.74099 18.6478L1.96089 17.1417V17.1416C1.6776 16.993 1.24391 16.7642 0.862363 16.5602C0.483085 16.3573 0.14879 16.1756 0.0706449 16.1237C0.0481621 16.1088 0.0320544 16.088 0.0204344 16.0691C0.00833812 16.0495 -0.00213971 16.0269 -0.0113605 16.0029C-0.0297963 15.9549 -0.0460791 15.8944 -0.0607062 15.8263C-0.0900527 15.6897 -0.114695 15.5129 -0.135132 15.3235C-0.176066 14.944 -0.200899 14.5055 -0.211236 14.2175L-0.211287 14.215L-0.211236 14.2124C-0.20092 13.8737 -0.186687 13.2564 -0.211134 12.8671C-0.235836 12.4739 -0.354626 11.4402 -0.396308 10.9633L-0.398597 10.9314C-0.417619 10.5933 -0.291334 9.98218 0.268994 9.27916C0.569052 8.9027 0.956334 8.75638 1.31736 8.72891C1.67604 8.70162 2.01081 8.79112 2.21703 8.88831L2.18361 8.95858L2.15013 9.02889C1.96508 8.94166 1.65735 8.859 1.32927 8.88396C1.00352 8.90874 0.659753 9.03913 0.391443 9.37575C-0.149432 10.0544 -0.25892 10.6287 -0.242573 10.9223L-0.240589 10.9498L-0.232093 11.0437C-0.185276 11.544 -0.0783416 12.4884 -0.0551612 12.8575C-0.0302448 13.2542 -0.0446844 13.8768 -0.0549577 14.2148C-0.0446415 14.5006 -0.0200459 14.9335 0.0202309 15.3069C0.0404643 15.4945 0.0644447 15.665 0.0921128 15.7938C0.105993 15.8584 0.12034 15.9101 0.134642 15.9473C0.141782 15.9659 0.148222 15.979 0.153566 15.9877C0.156288 15.9921 0.158152 15.9944 0.158958 15.9954C0.232334 16.0435 0.555044 16.2193 0.936382 16.4232C1.22251 16.5762 1.53805 16.7432 1.79734 16.8798L2.0347 17.0046L2.03516 17.0048L2.03562 17.0051L4.8116 18.509C4.86641 18.531 4.92758 18.558 4.98212 18.5742C5.00185 18.58 5.01703 18.5832 5.02785 18.5845C5.30091 18.0262 5.72365 16.6026 5.62717 15.2346C5.50389 13.4865 5.43958 12.8538 5.81733 11.8514C6.11215 11.0691 6.16155 10.577 6.15232 10.4392L6.151 10.4201L6.15888 10.4024C6.30278 10.0803 6.52328 9.57239 6.71695 9.09621C6.8138 8.85809 6.90372 8.6284 6.97395 8.43409C7.04477 8.23818 7.09381 8.08295 7.11105 7.99146C7.15899 7.73705 7.21783 7.512 7.21783 7.31799C7.21783 7.22352 7.20341 7.14335 7.17001 7.07648C7.13786 7.01211 7.08571 6.95523 7.00132 6.90892C6.84782 6.85443 6.70833 6.85015 6.56993 6.90917C6.42687 6.97019 6.27507 7.10296 6.10934 7.34285C5.83856 7.73476 5.36074 8.44477 5.15391 8.75346L4.16888 10.4687L3.49081 12.0022L3.45932 12.0734L3.31627 12.0108L3.34776 11.9396L4.02735 10.4027L4.02898 10.399L4.03102 10.3955L5.01951 8.67413L5.02083 8.67181L5.02231 8.66958C5.22823 8.36222 5.70834 7.64872 5.98053 7.25477C6.15456 7.00287 6.3271 6.84358 6.50837 6.76627Z" fill="black"/>
<path d="M7.32331 7.31805C7.32331 7.21379 7.30752 7.11628 7.2646 7.03037C7.22148 6.94404 7.15181 6.87109 7.04708 6.81497L7.04697 6.81492L7.0453 6.81401L7.04443 6.81371L7.0105 6.80207C6.84768 6.74951 6.68916 6.74616 6.53017 6.81396C6.36164 6.88584 6.19602 7.0363 6.02476 7.28418C5.75287 7.6777 5.27305 8.39064 5.06704 8.69813L5.06633 8.69925L5.06613 8.6997L5.06602 8.69991L4.07753 10.4212L4.07692 10.4222L4.07647 10.4234L4.07631 10.4237L3.39672 11.9605L3.38619 11.9843L3.4339 12.0051L3.44443 11.9814L4.1225 10.4479L4.12357 10.4454L4.12495 10.443L5.10998 8.7278L5.11084 8.72623L5.11186 8.72476C5.31867 8.41608 5.79668 7.7058 6.06769 7.31354C6.23619 7.06966 6.39492 6.92804 6.55072 6.8616C6.69412 6.80045 6.83788 6.8018 6.98964 6.8499L7.02011 6.86018L7.02408 6.86155L7.02774 6.86357C7.12071 6.91459 7.18074 6.97896 7.21795 7.05345L7.22482 7.06793C7.25792 7.141 7.27122 7.22489 7.27122 7.31805C7.27122 7.51848 7.21037 7.75245 7.16352 8.00108C7.14541 8.09716 7.09503 8.256 7.02429 8.45171C6.95373 8.64692 6.86349 8.87728 6.76652 9.11571C6.57257 9.59256 6.35186 10.101 6.20779 10.4236L6.20774 10.4236L6.20515 10.4293L6.2056 10.4357V10.4358C6.21554 10.5842 6.16337 11.0844 5.86741 11.8697C5.49438 12.8596 5.55694 13.4803 5.6804 15.231C5.77761 16.6094 5.35245 18.042 5.076 18.6072L5.05967 18.6406L5.02268 18.636C5.00828 18.6342 4.99022 18.6303 4.96855 18.6239C4.91093 18.6068 4.84556 18.5781 4.79345 18.5572L4.79066 18.5561L4.78796 18.5546L2.01361 17.0515L2.01321 17.0514L2.01168 17.0505L1.77431 16.9257C1.51496 16.789 1.19925 16.622 0.913001 16.4689C0.533188 16.2658 0.207525 16.0885 0.131609 16.0387L0.125403 16.0347L0.120621 16.0291C0.117828 16.0258 0.114433 16.0213 0.110497 16.0149C0.102889 16.0025 0.0951088 15.9862 0.0872998 15.9659C0.0716262 15.9251 0.0566161 15.8705 0.0424817 15.8047C0.0142535 15.6733 -0.00996402 15.5007 -0.030265 15.3125C-0.0707152 14.9375 -0.0953648 14.5032 -0.105708 14.2167L-0.10581 14.215L-0.105759 14.2133C-0.0954732 13.8748 -0.0811207 13.2547 -0.105861 12.8608C-0.128987 12.4926 -0.235639 11.5514 -0.282691 11.0485V11.0484L-0.291187 10.9545L-0.291238 10.9541V10.9536L-0.293222 10.926L-0.293272 10.9256V10.9252C-0.310436 10.617 -0.195514 10.0305 0.351935 9.34361C0.63082 8.99372 0.989072 8.85801 1.32659 8.83233C1.6383 8.80862 1.93167 8.87899 2.12614 8.96101L2.14842 8.91409C1.94717 8.82885 1.64461 8.75615 1.32262 8.78065C0.973348 8.80722 0.600558 8.94823 0.311085 9.31141C-0.242227 10.0056 -0.363317 10.6042 -0.345365 10.9278L-0.343127 10.9589C-0.301771 11.432 -0.182562 12.4706 -0.157852 12.864C-0.133228 13.256 -0.147549 13.8757 -0.157852 14.214L-0.157902 14.2148L-0.157852 14.2164C-0.147527 14.5037 -0.122779 14.9405 -0.0820525 15.318C-0.0616833 15.5069 -0.0372774 15.6816 -0.00849186 15.8155C0.00588616 15.8825 0.0215101 15.94 0.0385646 15.9844C0.0470762 16.0065 0.056226 16.0261 0.0660863 16.0421C0.075745 16.0577 0.087137 16.0715 0.100832 16.0806L0.117925 16.0915C0.217882 16.1533 0.531223 16.3236 0.888328 16.5146C1.26971 16.7185 1.70328 16.9472 1.9865 17.0958L2.01427 17.1104V17.1109L4.7669 18.6022L4.76863 18.6031L4.7699 18.6037C4.8198 18.6235 4.89165 18.6552 4.95365 18.6736C4.98452 18.6828 5.01564 18.6894 5.04206 18.689C5.06697 18.6887 5.09416 18.6814 5.10871 18.6582L5.11186 18.6524C5.3917 18.0953 5.83163 16.634 5.73245 15.2274C5.6088 13.4741 5.54783 12.8652 5.91614 11.8879C6.2023 11.1285 6.26402 10.6286 6.25841 10.4504L6.258 10.4385L6.26284 10.4278C6.40716 10.1041 6.62397 9.60448 6.81485 9.1352C6.91195 8.89646 7.00239 8.66533 7.07328 8.46923C7.14395 8.27369 7.19578 8.11125 7.21475 8.0106C7.26053 7.76764 7.32331 7.52489 7.32331 7.31805ZM7.4275 7.31805C7.4275 7.53772 7.36078 7.79792 7.3171 8.02973C7.29641 8.13954 7.24191 8.30915 7.17136 8.50436C7.09983 8.70225 7.00876 8.93471 6.9114 9.17408C6.72205 9.63962 6.50733 10.1346 6.3627 10.4592C6.3659 10.6645 6.29671 11.1734 6.01372 11.9243C5.65484 12.8766 5.7123 13.4615 5.83633 15.2201C5.93699 16.6476 5.49212 18.1276 5.20501 18.699L5.2045 18.7L5.20389 18.701L5.19844 18.7108L5.19788 18.7119L5.19722 18.7129C5.15424 18.7817 5.0805 18.7922 5.04359 18.7927C5.00108 18.7933 4.95779 18.783 4.92394 18.7729C4.85589 18.7528 4.77553 18.7175 4.73129 18.6999L4.73108 18.6998L4.72417 18.697L4.72167 18.6957L4.7176 18.6936L4.71735 18.6934L1.93725 17.1872L1.93619 17.1866C1.65279 17.0379 1.21993 16.8096 0.838982 16.6059C0.484939 16.4165 0.1662 16.2435 0.0611517 16.1784L0.0430413 16.1669C0.0117746 16.1462 -0.00905358 16.1183 -0.0226342 16.0963C-0.0369618 16.0731 -0.0487752 16.0473 -0.0587023 16.0215C-0.0785172 15.9699 -0.0954628 15.9064 -0.110337 15.8372C-0.140244 15.698 -0.165123 15.5191 -0.185628 15.3291C-0.226735 14.948 -0.251622 14.5082 -0.261986 14.2194L-0.262037 14.219V14.2186L-0.262088 14.2161V14.214L-0.262037 14.2114V14.2109C-0.251709 13.8717 -0.237563 13.2569 -0.261834 12.8704C-0.286527 12.4773 -0.404896 11.4485 -0.446905 10.9679L-0.446956 10.9675V10.9671L-0.449245 10.9352L-0.449296 10.9348V10.9344C-0.469142 10.5816 -0.337395 9.95827 0.229487 9.24702C0.540128 8.85728 0.941905 8.70564 1.31468 8.67728C1.68356 8.64922 2.02733 8.74103 2.2406 8.84154L2.28771 8.86372L2.23201 8.9808L2.1762 9.09799L2.12914 9.07577C1.95114 8.99187 1.6524 8.91152 1.33452 8.9357C1.02055 8.95959 0.691269 9.08465 0.433534 9.408C-0.100235 10.0777 -0.20462 10.6395 -0.189341 10.9186L-0.187408 10.9452L-0.178912 11.0389L-0.15892 11.2447C-0.10687 11.7646 -0.0222092 12.5306 -0.00187852 12.8543C0.0231787 13.2533 0.0087359 13.877 -0.00152242 14.215C0.00880946 14.5001 0.0333023 14.9305 0.0733101 15.3014C0.0934755 15.4884 0.11722 15.6569 0.144327 15.783C0.15795 15.8464 0.171638 15.8952 0.184567 15.9288C0.189972 15.9429 0.194576 15.9521 0.197692 15.9577C0.28322 16.0113 0.593473 16.1803 0.962346 16.3776C1.24834 16.5305 1.56377 16.6975 1.823 16.834L2.05838 16.9579L2.0597 16.9585L2.06174 16.9596L2.06184 16.9596L4.83522 18.4622C4.89175 18.4849 4.94769 18.5096 4.99826 18.5246C4.99875 18.5247 4.99926 18.5248 4.99974 18.525C5.26964 17.9495 5.6702 16.5668 5.57652 15.2383C5.45343 13.4928 5.38738 12.8481 5.76984 11.8333C6.06343 11.0542 6.11012 10.5701 6.10162 10.4428L6.1003 10.4237L6.09944 10.4108L6.10473 10.399L6.11256 10.3814C6.25629 10.0597 6.47656 9.55234 6.66996 9.07683C6.76668 8.83903 6.85629 8.61 6.9262 8.41658C6.99708 8.22048 7.04479 8.06885 7.06117 7.98195C7.11019 7.72176 7.16703 7.50564 7.16703 7.31805C7.16703 7.23405 7.15496 7.16595 7.12984 7.1105L7.12466 7.09962C7.09799 7.04623 7.05464 6.99755 6.98099 6.95636C6.83877 6.90666 6.71438 6.90456 6.59172 6.95687C6.46141 7.01244 6.31653 7.13639 6.15356 7.37226C5.88351 7.76313 5.4071 8.47101 5.19966 8.7806L4.21667 10.4923L3.53977 12.0231L3.48732 12.1418L3.24888 12.0374L3.98098 10.3819L3.98245 10.3785L3.98362 10.3758L4.9768 8.64635L4.97766 8.64483L4.97863 8.64331L4.9801 8.64108L4.98025 8.64088C5.18617 8.33354 5.66646 7.61976 5.93888 7.22546C6.11568 6.96957 6.29515 6.80144 6.48916 6.71869C6.66401 6.64413 6.83765 6.64436 7.00877 6.69318L7.04296 6.70356L7.04387 6.70386L7.07841 6.71571L7.07877 6.71581L7.07913 6.71596L7.08813 6.7192L7.09154 6.72102L7.09642 6.72365C7.21857 6.7891 7.30442 6.87714 7.3579 6.9842C7.41033 7.08917 7.42749 7.20403 7.4275 7.31805Z" fill="black"/>
<path d="M12.3449 7.86055C12.5022 7.63014 12.8264 7.55669 13.2953 7.63194C13.794 7.71199 14.3797 7.94966 14.9124 8.21662C15.4471 8.48462 15.939 8.78754 16.2529 9.00616L16.2893 9.03157L16.3026 9.07384C16.5649 9.91319 17.0262 11.1988 17.4136 12.3603C17.6065 12.9389 17.7808 13.4857 17.9007 13.9257C17.9606 14.1456 18.0076 14.341 18.0364 14.5014C18.0644 14.6568 18.0786 14.7956 18.0622 14.8936C18.0082 15.2164 17.8057 15.5889 17.6087 15.9085C17.5089 16.0704 17.4067 16.2244 17.321 16.3557C17.2335 16.4898 17.166 16.5962 17.1287 16.6703L17.1061 16.7152L17.0591 16.7332C16.3259 17.015 15.175 17.6979 14.0775 18.359C13.5317 18.6878 13.0008 19.0102 12.5479 19.2701C12.0984 19.528 11.7143 19.7313 11.4656 19.816L11.1946 19.9082L11.3028 19.6444C11.4141 19.3732 11.4333 19.003 11.3804 18.5766C11.3278 18.1529 11.2059 17.6873 11.0487 17.2344C10.7326 16.3236 10.2834 15.4899 9.99609 15.1653L10.1915 14.994C10.5118 15.3558 10.9745 16.2266 11.2949 17.1498C11.4559 17.6139 11.5834 18.0977 11.6388 18.5448C11.6798 18.8746 11.6824 19.192 11.6256 19.4692C11.8353 19.3711 12.105 19.225 12.4178 19.0455C12.8676 18.7874 13.3952 18.4671 13.9426 18.1373C15.01 17.4943 16.159 16.8112 16.9196 16.5094C16.9655 16.4264 17.0308 16.3245 17.1026 16.2146C17.1897 16.0811 17.2891 15.9312 17.3867 15.773C17.5846 15.452 17.7605 15.1183 17.8053 14.851C17.8136 14.8014 17.8079 14.7021 17.78 14.5471C17.7531 14.3973 17.7083 14.2101 17.6493 13.9936C17.5314 13.5608 17.359 13.0196 17.1664 12.442C16.789 11.3105 16.3324 10.0354 16.0674 9.19361C15.7622 8.98396 15.2982 8.70018 14.7952 8.44811C14.2699 8.18485 13.7127 7.96148 13.2538 7.88783C12.8062 7.816 12.6267 7.90907 12.5604 8.00619C12.4879 8.11249 12.493 8.30021 12.5919 8.54075C12.7128 8.83469 12.9789 9.03387 13.2912 9.17938C13.6048 9.32552 13.9363 9.40555 14.1782 9.48043L14.1008 9.72787C13.8793 9.65931 13.5158 9.57024 13.1807 9.41412C12.8443 9.25737 12.508 9.02114 12.3508 8.63885C12.2455 8.38255 12.194 8.08176 12.3449 7.86055Z" fill="black"/>
<path d="M10.109 9.04143C10.3204 8.69963 10.6773 8.63908 10.9989 8.68379C11.284 8.72345 11.5664 8.84705 11.7628 8.9612C11.8082 8.93362 11.8556 8.91035 11.9041 8.89093C12.1872 8.77741 12.5194 8.78794 12.7449 8.83171L12.695 9.08613C12.4983 9.04793 12.2216 9.04307 12.0014 9.13133C11.8935 9.17459 11.8031 9.23849 11.7393 9.3282C11.6771 9.41568 11.634 9.53643 11.6325 9.70563C11.6571 9.85245 11.7631 9.95157 11.926 10.011C12.0943 10.0724 12.3029 10.0814 12.4705 10.0537C12.888 9.98441 13.1857 9.86264 13.3439 9.72274L13.517 9.91642C13.3044 10.1044 12.9489 10.2371 12.5133 10.3093C12.3102 10.343 12.0548 10.334 11.8364 10.2543C11.6158 10.1739 11.4132 10.0118 11.3732 9.73327L11.3719 9.72416V9.71495C11.3719 9.49562 11.4277 9.31771 11.5267 9.17846C11.5356 9.16602 11.5449 9.15406 11.5543 9.14237C11.3864 9.0542 11.1718 8.96956 10.9628 8.94049C10.6925 8.9029 10.4639 8.95959 10.3291 9.17998L10.3266 9.18403L10.3238 9.18793C10.275 9.25601 10.2549 9.30541 10.2472 9.33579L10.9248 9.67293L10.8083 9.90473L10.036 9.52051L10.0168 9.49186C9.97971 9.43645 9.97603 9.36267 9.98976 9.29403C10.0043 9.22129 10.0412 9.13675 10.109 9.04143Z" fill="black"/>
<path d="M9.54634 8.62967C9.86346 8.61832 10.1939 8.7359 10.4009 8.8443L10.2796 9.07367C10.0953 8.97715 9.81105 8.87956 9.5557 8.8887C9.42997 8.8932 9.31812 8.92323 9.22788 8.98503C9.13927 9.0457 9.06131 9.14384 9.01315 9.30359L8.76367 9.22912C8.82671 9.02002 8.93692 8.86965 9.08025 8.77151C9.22193 8.6745 9.38581 8.63541 9.54634 8.62967Z" fill="black"/>
<path d="M12.6253 12.1255C12.6253 13.8231 11.2423 15.1993 9.53626 15.1993C7.83026 15.1993 6.44727 13.8231 6.44727 12.1255C6.44727 10.4279 7.83026 9.05176 9.53626 9.05176C11.2423 9.05176 12.6253 10.4279 12.6253 12.1255Z" fill="#EEFCCE"/>
<path d="M12.3648 12.1255C12.3648 10.5711 11.0984 9.31094 9.53625 9.31094C7.9741 9.31094 6.70773 10.5711 6.70773 12.1255C6.70773 13.68 7.9741 14.9401 9.53625 14.9401V15.1993C7.83025 15.1993 6.44727 13.8231 6.44727 12.1255C6.44727 10.4279 7.83025 9.05176 9.53625 9.05176C11.2423 9.05176 12.6252 10.4279 12.6252 12.1255C12.6252 13.8231 11.2423 15.1993 9.53625 15.1993V14.9401C11.0984 14.9401 12.3648 13.68 12.3648 12.1255Z" fill="black"/>
<path d="M11.7483 12.125C11.7483 10.9101 10.7586 9.9252 9.5376 9.9252C8.31665 9.9252 7.32687 10.9101 7.32687 12.125C7.32687 13.34 8.31665 14.3249 9.5376 14.3249V14.5841L9.50565 14.5839C8.16621 14.567 7.08358 13.4897 7.06661 12.1568L7.06641 12.125C7.06641 10.767 8.1728 9.66602 9.5376 9.66602L9.56955 9.66622C10.9196 9.68324 12.0088 10.7776 12.0088 12.125L12.0086 12.1568C11.9915 13.5003 10.8917 14.5841 9.5376 14.5841V14.3249C10.7585 14.3249 11.7483 13.34 11.7483 12.125Z" fill="black"/>
<path d="M11.8855 11.3125V11.5717L7.25195 11.5717V11.3125L11.8855 11.3125Z" fill="black"/>
<path d="M11.823 12.2959V12.5551L7.18945 12.5551V12.2959L11.823 12.2959Z" fill="black"/>
<path d="M10.6498 12.0035C10.6498 12.309 10.6189 12.5568 9.97023 12.5568C9.32155 12.5568 9.25977 12.309 9.25977 12.0035C9.25977 11.6979 9.25977 11.4502 9.97023 11.4502C10.6041 11.4502 10.6498 11.6979 10.6498 12.0035Z" fill="black"/>
</g>
<path d="M0.520928 5.28866V14.7113L9.00014 19.4361L17.4795 14.7113V5.28861L9.00019 0.563776L0.520928 5.28866ZM18.0004 14.8936L17.9999 14.9076C17.9952 14.9772 17.9555 15.0401 17.8938 15.0745L9.10199 19.9735C9.04269 20.0066 8.97122 20.0087 8.91041 19.9798L8.8984 19.9735L0.106576 15.0745C0.0407736 15.0378 0 14.9686 0 14.8936V5.10638C0 5.03133 0.0407734 4.96212 0.106576 4.92546L8.8984 0.0264318C8.96165 -0.00881058 9.03874 -0.0088106 9.10199 0.0264318L17.8938 4.92546C17.9596 4.96212 18.0004 5.03133 18.0004 5.10638V14.8936Z" fill="black"/>
<path d="M20.0003 12.063C20.0003 13.7606 18.6173 15.1368 16.9113 15.1368C15.2053 15.1368 13.8223 13.7606 13.8223 12.063C13.8223 10.3654 15.2053 8.98926 16.9113 8.98926C18.6173 8.98926 20.0003 10.3654 20.0003 12.063Z" fill="#EEFCCE"/>
<path d="M19.7398 12.063C19.7398 10.5086 18.4734 9.24844 16.9113 9.24844C15.3491 9.24844 14.0827 10.5086 14.0827 12.063C14.0827 13.6175 15.3491 14.8776 16.9113 14.8776V15.1368C15.2053 15.1368 13.8223 13.7606 13.8223 12.063C13.8223 10.3654 15.2053 8.98926 16.9113 8.98926C18.6173 8.98926 20.0002 10.3654 20.0002 12.063C20.0002 13.7606 18.6173 15.1368 16.9113 15.1368V14.8776C18.4734 14.8776 19.7398 13.6175 19.7398 12.063Z" fill="black"/>
<path d="M19.1214 12.0635C19.1214 10.8486 18.1316 9.86368 16.9106 9.86367C15.6897 9.86367 14.6999 10.8486 14.6999 12.0635C14.6999 13.2785 15.6897 14.2634 16.9106 14.2634V14.5225L16.8787 14.5223C15.5393 14.5055 14.4566 13.4282 14.4397 12.0953L14.4395 12.0635C14.4395 10.7054 15.5458 9.60449 16.9106 9.60449L16.9426 9.60469C18.2927 9.62172 19.3818 10.7161 19.3818 12.0635L19.3816 12.0953C19.3645 13.4387 18.2648 14.5225 16.9106 14.5225V14.2634C18.1316 14.2634 19.1214 13.2784 19.1214 12.0635Z" fill="black"/>
<path d="M19.2585 11.251V11.5102L14.625 11.5102V11.251L19.2585 11.251Z" fill="black"/>
<path d="M19.198 12.2344V12.4936L14.5645 12.4936V12.2344L19.198 12.2344Z" fill="black"/>
<path d="M18.0229 11.942C18.0229 12.2475 17.992 12.4952 17.3433 12.4952C16.6946 12.4952 16.6328 12.2475 16.6328 11.942C16.6328 11.6364 16.6328 11.3887 17.3433 11.3887C17.9772 11.3887 18.0229 11.6364 18.0229 11.942Z" fill="black"/>
</svg>
