<svg width="40" height="40" viewBox="0 0 40 40" fill="none" xmlns="http://www.w3.org/2000/svg">
<mask id="mask0_447_2248" style="mask-type:alpha" maskUnits="userSpaceOnUse" x="0" y="0" width="40" height="40">
<circle cx="20" cy="20" r="20" fill="#D9D9D9"/>
</mask>
<g mask="url(#mask0_447_2248)">
<mask id="mask1_447_2248" style="mask-type:alpha" maskUnits="userSpaceOnUse" x="-1" y="-4" width="42" height="48">
<path d="M19.9028 -3.72559L40.3648 8.08814V31.7156L19.9028 43.5293L-0.559132 31.7156V8.08814L19.9028 -3.72559Z" fill="black"/>
</mask>
<g mask="url(#mask1_447_2248)">
<path d="M19.9009 -3.72559L40.3629 8.08814V31.7156L19.9009 43.5293L-0.561085 31.7156V8.08814L19.9009 -3.72559Z" fill="#5B6057"/>
<ellipse cx="17.9142" cy="16.6947" rx="13.3185" ry="13.8754" fill="#F7EE7F"/>
<path d="M8.31026 23.0438L-1.80664 32.9922V34.4975L17.5948 43.5296L32.6421 29.916L37.7005 25.7272L20.6042 7.9248L16.6343 11.7209L8.31026 23.0438Z" fill="#EEFCCE"/>
<mask id="path-6-inside-1_447_2248" fill="white">
<path d="M34.3802 29.0826C34.738 29.4544 34.7331 30.0528 34.3692 30.4186C34.0053 30.7845 33.4199 30.7796 33.0621 30.4078L33.0194 30.3635L19.6233 43.8318L16.2599 41.9122L24.98 33.1452C25.4653 32.6572 25.4719 31.8597 24.9947 31.3638C24.5174 30.868 23.7373 30.8614 23.2519 31.3494L14.0188 40.6322L11.7757 39.3529L21.5232 29.5529C22.0085 29.0649 22.015 28.2675 21.538 27.7715C21.0607 27.2755 20.2806 27.2691 19.7952 27.7571L9.5339 38.0736L7.29075 36.7943L18.0665 25.9606C18.5515 25.4726 18.5582 24.675 18.0812 24.1792C17.6041 23.6833 16.8238 23.6771 16.3384 24.1648L5.04827 35.5157L2.80716 34.2372L14.6111 22.3697C15.0965 21.8817 15.1031 21.0828 14.6258 20.5869C14.1486 20.0912 13.3677 20.0853 12.8824 20.5732L0.564698 32.9572L-2.79867 31.039L15.7371 12.4034L15.6931 12.3576C15.3353 11.9858 15.3403 11.3874 15.7041 11.0216C16.068 10.6558 16.6534 10.6607 17.0112 11.0324L34.3802 29.0826ZM36.4896 26.9632C36.8473 27.3349 36.8428 27.9327 36.4793 28.2986C36.1154 28.6644 35.53 28.6595 35.1722 28.2877L17.8031 10.2376C17.4453 9.86574 17.4503 9.2674 17.8142 8.90154C18.1781 8.53599 18.7629 8.54131 19.1206 8.91304L36.4896 26.9632ZM42.3785 26.0765C40.7775 27.6862 38.2035 27.6654 36.6292 26.0296L19.9494 8.69581C18.3751 7.05975 18.3969 4.42815 19.998 2.81836L42.3785 26.0765Z"/>
</mask>
<path d="M34.3802 29.0826C34.738 29.4544 34.7331 30.0528 34.3692 30.4186C34.0053 30.7845 33.4199 30.7796 33.0621 30.4078L33.0194 30.3635L19.6233 43.8318L16.2599 41.9122L24.98 33.1452C25.4653 32.6572 25.4719 31.8597 24.9947 31.3638C24.5174 30.868 23.7373 30.8614 23.2519 31.3494L14.0188 40.6322L11.7757 39.3529L21.5232 29.5529C22.0085 29.0649 22.015 28.2675 21.538 27.7715C21.0607 27.2755 20.2806 27.2691 19.7952 27.7571L9.5339 38.0736L7.29075 36.7943L18.0665 25.9606C18.5515 25.4726 18.5582 24.675 18.0812 24.1792C17.6041 23.6833 16.8238 23.6771 16.3384 24.1648L5.04827 35.5157L2.80716 34.2372L14.6111 22.3697C15.0965 21.8817 15.1031 21.0828 14.6258 20.5869C14.1486 20.0912 13.3677 20.0853 12.8824 20.5732L0.564698 32.9572L-2.79867 31.039L15.7371 12.4034L15.6931 12.3576C15.3353 11.9858 15.3403 11.3874 15.7041 11.0216C16.068 10.6558 16.6534 10.6607 17.0112 11.0324L34.3802 29.0826ZM36.4896 26.9632C36.8473 27.3349 36.8428 27.9327 36.4793 28.2986C36.1154 28.6644 35.53 28.6595 35.1722 28.2877L17.8031 10.2376C17.4453 9.86574 17.4503 9.2674 17.8142 8.90154C18.1781 8.53599 18.7629 8.54131 19.1206 8.91304L36.4896 26.9632ZM42.3785 26.0765C40.7775 27.6862 38.2035 27.6654 36.6292 26.0296L19.9494 8.69581C18.3751 7.05975 18.3969 4.42815 19.998 2.81836L42.3785 26.0765Z" fill="#6FABFF"/>
<path d="M34.3692 30.4186L35.0625 31.1392L35.0626 31.1392L34.3692 30.4186ZM33.0621 30.4078L33.7673 29.6988L33.0621 30.4078ZM33.0194 30.3635L33.7246 29.6545L33.0313 28.9339L32.3261 29.6429L33.0194 30.3635ZM19.6233 43.8318L19.1409 44.7144L19.7881 45.0838L20.3167 44.5524L19.6233 43.8318ZM16.2599 41.9122L15.5666 41.1916L14.6258 42.1375L15.7775 42.7948L16.2599 41.9122ZM24.98 33.1452L25.6733 33.8657L24.98 33.1452ZM24.9947 31.3638L25.6999 30.6548L25.6998 30.6547L24.9947 31.3638ZM14.0188 40.6322L13.5367 41.515L14.1838 41.884L14.7122 41.3528L14.0188 40.6322ZM11.7757 39.3529L11.0823 38.6323L10.1412 39.5785L11.2936 40.2357L11.7757 39.3529ZM21.5232 29.5529L22.2166 30.2734L21.5232 29.5529ZM21.538 27.7715L22.2433 27.0627L22.2432 27.0625L21.538 27.7715ZM9.5339 38.0736L9.05179 38.9564L9.69885 39.3255L10.2273 38.7942L9.5339 38.0736ZM7.29075 36.7943L6.59737 36.0738L5.65626 37.0199L6.80864 37.6772L7.29075 36.7943ZM18.0665 25.9606L18.7599 26.6811L18.7601 26.6809L18.0665 25.9606ZM18.0812 24.1792L18.7865 23.4703L18.7864 23.4702L18.0812 24.1792ZM16.3384 24.1648L15.6453 23.444L15.6451 23.4442L16.3384 24.1648ZM5.04827 35.5157L4.56603 36.3985L5.21314 36.7677L5.74165 36.2363L5.04827 35.5157ZM2.80716 34.2372L2.11378 33.5166L1.17282 34.4626L2.32492 35.1199L2.80716 34.2372ZM14.6258 20.5869L15.331 19.8779L15.3308 19.8777L14.6258 20.5869ZM12.8824 20.5732L13.5758 21.2937L12.8824 20.5732ZM0.564698 32.9572L0.0825755 33.84L0.729639 34.209L1.25808 33.6778L0.564698 32.9572ZM-2.79867 31.039L-3.49205 30.3184L-4.43315 31.2646L-3.28079 31.9218L-2.79867 31.039ZM15.7371 12.4034L16.4304 13.124L17.1356 12.415L16.4423 11.6944L15.7371 12.4034ZM15.6931 12.3576L14.9878 13.0666L14.9878 13.0667L15.6931 12.3576ZM15.7041 11.0216L15.0107 10.301L15.0107 10.3011L15.7041 11.0216ZM17.0112 11.0324L17.7164 10.3234L17.7163 10.3233L17.0112 11.0324ZM36.4896 26.9632L37.1949 26.2543L37.1948 26.2542L36.4896 26.9632ZM36.4793 28.2986L37.1727 29.0191L37.173 29.0188L36.4793 28.2986ZM35.1722 28.2877L34.467 28.9968L34.467 28.9968L35.1722 28.2877ZM17.8142 8.90154L17.1211 8.18064L17.1208 8.18096L17.8142 8.90154ZM42.3785 26.0765L43.0719 26.7971L43.7771 26.0881L43.0837 25.3675L42.3785 26.0765ZM36.6292 26.0296L35.924 26.7386L35.924 26.7387L36.6292 26.0296ZM19.998 2.81836L20.7033 2.10936L20.0099 1.38878L19.3047 2.09779L19.998 2.81836ZM34.3802 29.0826L33.675 29.7916C33.6499 29.7655 33.6502 29.7238 33.6758 29.6981L34.3692 30.4186L35.0626 31.1392C35.8159 30.3818 35.8262 29.1434 35.0854 28.3736L34.3802 29.0826ZM34.3692 30.4186L33.6758 29.698C33.7014 29.6724 33.7421 29.6726 33.7673 29.6988L33.0621 30.4078L32.3569 31.1168C33.0977 31.8866 34.3092 31.8966 35.0625 31.1392L34.3692 30.4186ZM33.0621 30.4078L33.7673 29.6988L33.7246 29.6545L33.0194 30.3635L32.3142 31.0725L32.3569 31.1168L33.0621 30.4078ZM33.0194 30.3635L32.3261 29.6429L18.9299 43.1112L19.6233 43.8318L20.3167 44.5524L33.7128 31.0841L33.0194 30.3635ZM19.6233 43.8318L20.1057 42.9491L16.7423 41.0295L16.2599 41.9122L15.7775 42.7948L19.1409 44.7144L19.6233 43.8318ZM16.2599 41.9122L16.9533 42.6327L25.6733 33.8657L24.98 33.1452L24.2866 32.4246L15.5666 41.1916L16.2599 41.9122ZM24.98 33.1452L25.6733 33.8657C26.5482 32.9862 26.5601 31.5487 25.6999 30.6548L24.9947 31.3638L24.2895 32.0728C24.3838 32.1708 24.3825 32.3282 24.2866 32.4246L24.98 33.1452ZM24.9947 31.3638L25.6998 30.6547C24.8397 29.7612 23.4335 29.7492 22.5586 30.6288L23.2519 31.3494L23.9453 32.0699C24.041 31.9737 24.1952 31.9748 24.2896 32.0729L24.9947 31.3638ZM23.2519 31.3494L22.5586 30.6288L13.3255 39.9116L14.0188 40.6322L14.7122 41.3528L23.9453 32.0699L23.2519 31.3494ZM14.0188 40.6322L14.501 39.7494L12.2578 38.4701L11.7757 39.3529L11.2936 40.2357L13.5367 41.515L14.0188 40.6322ZM11.7757 39.3529L12.4691 40.0735L22.2166 30.2734L21.5232 29.5529L20.8298 28.8323L11.0823 38.6323L11.7757 39.3529ZM21.5232 29.5529L22.2166 30.2734C23.0916 29.3938 23.1029 27.9564 22.2433 27.0627L21.538 27.7715L20.8326 28.4803C20.9271 28.5785 20.9255 28.7361 20.8298 28.8323L21.5232 29.5529ZM21.538 27.7715L22.2432 27.0625C21.383 26.1686 19.9767 26.1569 19.1018 27.0365L19.7952 27.7571L20.4886 28.4776C20.5845 28.3812 20.7385 28.3825 20.8328 28.4805L21.538 27.7715ZM19.7952 27.7571L19.1018 27.0365L8.84052 37.353L9.5339 38.0736L10.2273 38.7942L20.4886 28.4776L19.7952 27.7571ZM9.5339 38.0736L10.016 37.1908L7.77286 35.9115L7.29075 36.7943L6.80864 37.6772L9.05179 38.9564L9.5339 38.0736ZM7.29075 36.7943L7.98413 37.5149L18.7599 26.6811L18.0665 25.9606L17.3731 25.24L6.59737 36.0738L7.29075 36.7943ZM18.0665 25.9606L18.7601 26.6809C19.6342 25.8015 19.6465 24.3642 18.7865 23.4703L18.0812 24.1792L17.3759 24.8881C17.47 24.9859 17.4689 25.1436 17.3729 25.2402L18.0665 25.9606ZM18.0812 24.1792L18.7864 23.4702C17.9261 22.5761 16.5199 22.5652 15.6453 23.444L16.3384 24.1648L17.0316 24.8856C17.1278 24.7889 17.282 24.7905 17.376 24.8882L18.0812 24.1792ZM16.3384 24.1648L15.6451 23.4442L4.35489 34.7952L5.04827 35.5157L5.74165 36.2363L17.0318 24.8853L16.3384 24.1648ZM5.04827 35.5157L5.53051 34.633L3.2894 33.3544L2.80716 34.2372L2.32492 35.1199L4.56603 36.3985L5.04827 35.5157ZM2.80716 34.2372L3.50054 34.9577L15.3045 23.0902L14.6111 22.3697L13.9177 21.6491L2.11378 33.5166L2.80716 34.2372ZM14.6111 22.3697L15.3045 23.0902C16.1793 22.2107 16.1912 20.7718 15.331 19.8779L14.6258 20.5869L13.9206 21.2959C14.0149 21.3939 14.0136 21.5527 13.9177 21.6491L14.6111 22.3697ZM14.6258 20.5869L15.3308 19.8777C14.4702 18.9838 13.0633 18.9736 12.189 19.8526L12.8824 20.5732L13.5758 21.2937C13.6721 21.1969 13.827 21.1986 13.9208 21.2961L14.6258 20.5869ZM12.8824 20.5732L12.189 19.8526L-0.128682 32.2366L0.564698 32.9572L1.25808 33.6778L13.5758 21.2937L12.8824 20.5732ZM0.564698 32.9572L1.04682 32.0744L-2.31655 30.1561L-2.79867 31.039L-3.28079 31.9218L0.0825755 33.84L0.564698 32.9572ZM-2.79867 31.039L-2.10529 31.7595L16.4304 13.124L15.7371 12.4034L15.0437 11.6828L-3.49205 30.3184L-2.79867 31.039ZM15.7371 12.4034L16.4423 11.6944L16.3983 11.6486L15.6931 12.3576L14.9878 13.0667L15.0319 13.1124L15.7371 12.4034ZM15.6931 12.3576L16.3983 11.6487C16.4234 11.6748 16.4232 11.7164 16.3975 11.7421L15.7041 11.0216L15.0107 10.3011C14.2574 11.0585 14.2473 12.2968 14.9878 13.0666L15.6931 12.3576ZM15.7041 11.0216L16.3975 11.7422C16.3718 11.768 16.3311 11.7675 16.3061 11.7415L17.0112 11.0324L17.7163 10.3233C16.9757 9.55383 15.7642 9.54354 15.0107 10.301L15.7041 11.0216ZM17.0112 11.0324L16.306 11.7414L33.675 29.7916L34.3802 29.0826L35.0854 28.3736L17.7164 10.3234L17.0112 11.0324ZM36.4896 26.9632L35.7844 27.6722C35.7598 27.6467 35.7594 27.6046 35.7856 27.5783L36.4793 28.2986L37.173 29.0188C37.9263 28.2607 37.9347 27.0232 37.1949 26.2543L36.4896 26.9632ZM36.4793 28.2986L35.7859 27.578C35.8115 27.5522 35.8523 27.5526 35.8773 27.5787L35.1722 28.2877L34.467 28.9968C35.2077 29.7664 36.4192 29.7766 37.1727 29.0191L36.4793 28.2986ZM35.1722 28.2877L35.8774 27.5787L18.5084 9.52857L17.8031 10.2376L17.0979 10.9466L34.467 28.9968L35.1722 28.2877ZM17.8031 10.2376L18.5084 9.52857C18.5335 9.5547 18.5331 9.5964 18.5076 9.62211L17.8142 8.90154L17.1208 8.18096C16.3674 8.9384 16.3572 10.1768 17.0979 10.9466L17.8031 10.2376ZM17.8142 8.90154L18.5073 9.62243C18.4811 9.64866 18.44 9.64763 18.4154 9.62204L19.1206 8.91304L19.8258 8.20404C19.0858 7.435 17.8751 7.42332 17.1211 8.18064L17.8142 8.90154ZM19.1206 8.91304L18.4154 9.62204L35.7844 27.6722L36.4896 26.9632L37.1948 26.2542L19.8258 8.20404L19.1206 8.91304ZM42.3785 26.0765L41.6852 25.3559C40.4734 26.5742 38.5256 26.5583 37.3343 25.3206L36.6292 26.0296L35.924 26.7387C37.8814 28.7725 41.0815 28.7982 43.0719 26.7971L42.3785 26.0765ZM36.6292 26.0296L37.3344 25.3206L20.6546 7.98681L19.9494 8.69581L19.2442 9.40481L35.924 26.7386L36.6292 26.0296ZM19.9494 8.69581L20.6546 7.98681C19.4633 6.74871 19.4797 4.75715 20.6914 3.53893L19.998 2.81836L19.3047 2.09779C17.314 4.09915 17.287 7.37079 19.2442 9.40481L19.9494 8.69581ZM19.998 2.81836L19.2928 3.52736L41.6733 26.7855L42.3785 26.0765L43.0837 25.3675L20.7033 2.10936L19.998 2.81836Z" fill="black" mask="url(#path-6-inside-1_447_2248)"/>
<path d="M32.5 29.5L16.666 12.9414L29.2626 30.0934L18.5674 42.4275L20.5 41.5L32.5 29.5Z" fill="#5E96E4"/>
</g>
</g>
<circle cx="20" cy="20" r="19.5" stroke="black"/>
</svg>
