<svg width="21" height="17" viewBox="0 0 21 17" fill="none" xmlns="http://www.w3.org/2000/svg">
<path d="M18.967 10.0378L11 17L2.93795 10.1078C2.52452 9.7544 2.18828 9.31964 1.95016 8.83061C1.41696 7.73557 1.41696 6.45614 1.95016 5.3611L2.11 5.03284C2.95863 3.28999 4.78796 2.24462 6.72034 2.39826L6.80799 2.40523C7.5909 2.46747 8.34691 2.71926 9.01081 3.13885L11.3539 4.61971L13.1062 3.18016C13.9221 2.50993 14.9453 2.14355 16.0011 2.14355H16.0637C17.9416 2.14355 19.6194 3.31701 20.2636 5.08099C20.7287 6.35473 20.5907 7.77076 19.8883 8.9307L19.8667 8.96649C19.6237 9.36776 19.3202 9.72913 18.967 10.0378Z" fill="#A8292A"/>
<path d="M17.1847 9.11757L9.78788 16L1.81343 9.07482C1.37715 8.69595 1.02649 8.22857 0.784753 7.70374C0.28673 6.62251 0.28673 5.37749 0.784754 4.29626L1.08605 3.64214C1.82784 2.03167 3.43888 1 5.21197 1C6.30644 1 7.36411 1.39515 8.19047 2.11278L9.78788 3.5L11.4704 2.03885C12.2419 1.3689 13.2293 1 14.251 1C16.0594 1 17.6689 2.14679 18.2594 3.85607L18.3973 4.25533C18.7841 5.37493 18.7233 6.60066 18.2278 7.67654C17.9773 8.22027 17.623 8.70979 17.1847 9.11757Z" fill="#CE3E40"/>
<path d="M8.05469 5L9.15625 7.09766L10.2852 5H11.9922L10.2539 8L12.0391 11H10.3398L9.15625 8.92578L7.99219 11H6.27344L8.05469 8L6.33594 5H8.05469Z" fill="black"/>
</svg>
